<svg id="svg" version="1.1" xmlns="http://www.w3.org/2000/svg" xmlns:xlink="http://www.w3.org/1999/xlink" width="400" height="337.34939759036143" viewBox="0, 0, 400,337.34939759036143"><g id="svgg"><path id="path0" d="M135.021 36.511 C 131.002 37.787,128.429 39.206,127.610 40.598 C 127.257 41.197,126.737 41.921,126.455 42.206 C 126.173 42.490,125.777 43.478,125.575 44.400 C 125.372 45.322,124.947 46.759,124.629 47.595 C 124.091 49.008,124.051 53.180,124.051 107.173 L 124.051 165.232 124.882 167.595 C 125.339 168.895,126.061 170.487,126.485 171.133 C 126.910 171.780,127.262 172.463,127.268 172.652 C 127.302 173.756,130.537 176.161,133.507 177.290 L 135.527 178.059 195.781 178.059 L 256.034 178.059 258.397 177.254 C 259.696 176.811,261.189 176.089,261.714 175.650 C 262.238 175.211,262.787 174.852,262.934 174.852 C 263.080 174.852,263.623 174.207,264.142 173.418 C 264.660 172.629,265.339 171.603,265.650 171.139 C 265.961 170.675,266.620 169.117,267.116 167.676 L 268.017 165.057 268.017 106.990 C 268.017 59.172,267.937 48.732,267.564 47.837 C 267.315 47.240,266.912 45.916,266.670 44.895 C 266.427 43.873,265.910 42.615,265.519 42.097 C 263.867 39.906,262.858 38.819,262.478 38.819 C 262.255 38.819,261.557 38.439,260.928 37.975 C 260.299 37.511,259.396 37.130,258.922 37.129 C 258.447 37.128,257.603 36.862,257.046 36.538 C 255.315 35.531,138.187 35.505,135.021 36.511 M234.587 69.514 C 234.965 70.219,235.103 109.553,234.732 110.521 C 234.549 110.998,232.707 111.055,217.415 111.055 C 204.556 111.055,200.203 111.156,199.899 111.460 C 199.595 111.764,199.494 116.044,199.494 128.647 C 199.494 137.878,199.401 145.670,199.289 145.964 C 199.057 146.567,157.865 146.802,157.494 146.202 C 157.221 145.760,157.185 104.981,157.458 104.708 C 157.587 104.578,165.465 104.397,174.965 104.304 L 192.236 104.135 192.405 86.920 C 192.498 77.451,192.697 69.515,192.847 69.283 C 193.376 68.466,234.147 68.691,234.587 69.514 M199.649 76.368 C 199.559 76.602,199.526 82.946,199.574 90.465 L 199.662 104.135 213.671 104.135 L 227.679 104.135 227.679 90.127 L 227.679 76.118 213.746 76.030 C 202.773 75.961,199.778 76.032,199.649 76.368 M221.579 82.218 C 222.397 83.035,222.370 97.254,221.550 97.933 C 220.849 98.514,206.454 98.484,205.750 97.900 C 205.183 97.429,205.455 82.331,206.038 81.946 C 206.861 81.402,221.011 81.650,221.579 82.218 M169.252 111.317 L 164.496 111.410 164.273 119.557 C 163.907 132.975,163.978 138.929,164.512 139.372 C 164.843 139.646,168.823 139.730,178.605 139.666 L 192.236 139.578 192.324 125.485 C 192.407 112.225,192.377 111.392,191.818 111.383 C 185.440 111.282,172.895 111.245,169.252 111.317 M186.262 117.536 C 186.887 118.161,186.832 132.776,186.202 133.298 C 185.877 133.569,183.429 133.657,178.017 133.593 L 170.295 133.502 170.205 125.781 C 170.141 120.369,170.229 117.921,170.499 117.595 C 171.021 116.966,185.637 116.911,186.262 117.536 M34.231 309.325 C 34.133 309.581,34.100 310.531,34.157 311.435 L 34.262 313.080 200.000 313.080 L 365.738 313.080 365.738 311.055 L 365.738 309.030 200.074 308.945 C 59.586 308.873,34.382 308.931,34.231 309.325 " stroke="none" fill="#2ed265" fill-rule="evenodd"></path><path id="path1" d="M26.329 209.564 C 25.947 209.691,25.899 217.536,26.274 218.484 C 26.485 219.018,26.613 218.984,27.537 218.147 C 30.945 215.057,39.531 213.867,40.943 216.289 C 42.318 218.648,42.738 268.825,41.407 271.793 C 41.092 272.496,40.825 274.602,40.689 277.467 C 40.479 281.901,39.812 284.245,38.481 285.232 C 38.355 285.325,38.167 285.743,38.061 286.160 L 37.869 286.920 45.264 286.920 C 53.708 286.920,53.448 287.042,51.192 284.136 C 49.740 282.267,49.722 282.211,49.424 278.592 C 48.854 271.673,49.034 217.372,49.630 216.203 L 50.146 215.190 53.859 215.234 C 56.943 215.270,57.799 215.399,58.908 215.993 C 59.642 216.387,60.506 216.709,60.827 216.709 C 61.148 216.709,61.931 217.166,62.567 217.724 C 63.531 218.570,63.758 218.650,63.929 218.203 C 64.226 217.429,64.183 209.622,63.882 209.612 C 61.464 209.528,26.569 209.484,26.329 209.564 M71.561 209.607 L 70.717 209.863 71.561 210.212 C 75.829 211.978,76.265 215.464,76.284 247.932 C 76.293 263.599,75.795 281.282,75.286 283.376 C 75.106 284.118,74.737 285.689,74.466 286.866 C 74.196 288.044,73.925 289.037,73.865 289.074 C 73.805 289.111,73.172 289.571,72.458 290.097 C 71.463 290.830,70.757 291.063,69.425 291.096 C 68.169 291.127,67.661 291.280,67.590 291.649 C 67.462 292.317,70.023 296.247,70.888 296.710 C 71.617 297.100,74.830 296.816,75.127 296.336 C 75.224 296.180,75.942 295.881,76.723 295.672 C 78.695 295.145,81.358 292.430,81.952 290.340 C 83.395 285.264,83.365 285.790,83.370 265.780 C 83.374 250.762,83.469 246.422,83.797 246.161 C 84.232 245.816,86.603 245.535,92.120 245.174 C 95.331 244.963,102.583 245.567,103.713 246.139 C 104.404 246.488,104.576 253.770,103.974 257.195 C 103.793 258.227,103.501 264.113,103.325 270.276 L 103.005 281.480 102.064 283.103 C 101.546 283.995,100.946 284.878,100.731 285.063 C 100.516 285.249,100.258 285.743,100.159 286.160 L 99.979 286.920 107.545 286.920 L 115.111 286.920 114.686 286.160 C 114.453 285.743,113.869 284.869,113.389 284.219 C 111.480 281.633,111.307 278.585,111.297 247.426 C 111.286 213.532,111.412 212.404,115.436 210.291 C 116.904 209.520,115.416 209.330,107.848 209.326 C 100.401 209.321,97.311 209.589,98.903 210.099 C 99.801 210.387,101.941 212.253,101.941 212.749 C 101.941 212.911,102.157 213.260,102.420 213.523 C 103.004 214.107,103.198 216.036,103.656 225.823 C 103.851 230.000,104.087 234.889,104.179 236.687 C 104.434 241.636,105.075 241.350,93.723 241.350 C 84.923 241.350,84.464 241.319,83.882 240.676 C 83.197 239.918,83.285 216.471,83.977 215.598 C 84.155 215.374,84.493 214.582,84.729 213.840 C 85.228 212.269,86.875 210.433,88.095 210.090 C 88.878 209.870,88.838 209.830,87.595 209.586 C 85.874 209.249,72.682 209.266,71.561 209.607 M126.320 209.522 C 125.599 209.660,125.647 209.760,127.079 211.113 C 127.920 211.907,128.784 213.073,129.000 213.704 C 129.216 214.336,129.538 214.948,129.715 215.065 C 131.440 216.208,131.358 277.535,129.627 281.336 C 129.252 282.159,128.945 282.972,128.945 283.142 C 128.945 283.313,128.572 283.825,128.116 284.281 C 127.660 284.737,127.132 285.518,126.943 286.015 L 126.599 286.920 140.930 286.920 L 155.261 286.920 155.481 286.044 C 156.173 283.288,154.113 277.210,153.124 279.087 C 152.445 280.377,151.043 281.521,149.899 281.721 C 149.235 281.837,148.312 282.176,147.848 282.473 C 146.776 283.160,140.325 283.489,139.607 282.894 C 138.190 281.717,137.378 248.107,138.734 246.751 C 139.591 245.894,144.043 245.790,145.939 246.582 C 146.606 246.861,147.508 247.089,147.945 247.089 C 148.866 247.089,151.561 249.044,151.561 249.712 C 151.561 249.962,151.713 250.073,151.899 249.958 C 152.270 249.728,152.382 239.921,152.017 239.556 C 151.897 239.436,151.213 239.866,150.497 240.512 C 149.782 241.159,148.923 241.688,148.590 241.688 C 148.256 241.688,147.839 241.827,147.662 241.998 C 146.631 242.995,140.009 243.353,138.760 242.478 L 137.961 241.918 138.200 229.567 C 138.453 216.468,138.737 214.054,140.108 213.321 C 141.124 212.777,147.677 213.547,149.355 214.407 C 150.104 214.792,151.093 215.303,151.552 215.543 C 152.011 215.783,152.634 216.441,152.936 217.005 L 153.486 218.030 154.355 216.703 C 155.381 215.135,156.205 209.993,155.502 209.545 C 155.090 209.283,127.676 209.262,126.320 209.522 M231.125 209.526 L 230.182 209.668 231.268 210.404 C 233.999 212.253,235.231 215.383,235.279 220.591 C 235.290 221.705,235.515 222.996,235.781 223.460 C 236.520 224.754,236.520 268.726,235.781 270.496 C 235.501 271.166,235.273 272.732,235.272 273.998 C 235.267 278.027,234.693 281.800,233.937 282.760 C 233.559 283.242,233.249 283.841,233.249 284.093 C 233.249 284.345,232.945 284.741,232.574 284.973 C 232.203 285.205,231.899 285.738,231.899 286.157 L 231.899 286.920 247.387 286.920 L 262.875 286.920 263.078 286.160 C 263.591 284.249,263.037 277.598,262.238 276.060 C 262.077 275.749,261.798 273.439,261.618 270.926 C 261.439 268.414,261.042 265.402,260.736 264.234 C 260.149 261.989,260.255 258.091,260.921 257.425 C 261.111 257.235,261.266 256.818,261.266 256.498 C 261.266 254.953,264.802 252.489,267.019 252.489 C 268.500 252.489,268.442 250.639,266.925 249.517 C 266.597 249.274,266.329 248.907,266.329 248.701 C 266.329 248.495,266.105 248.086,265.832 247.792 C 264.484 246.344,263.360 244.822,263.157 244.172 C 262.693 242.684,261.123 242.962,259.155 244.882 C 256.815 247.165,255.865 248.282,255.865 248.750 C 255.865 248.961,255.476 250.058,255.001 251.188 C 254.032 253.489,253.923 263.671,254.832 267.004 C 255.059 267.840,255.388 269.890,255.562 271.561 C 256.011 275.879,256.451 279.182,256.714 280.212 C 256.905 280.960,256.751 281.244,255.730 282.022 C 254.127 283.245,244.950 283.784,244.057 282.708 C 243.437 281.961,243.089 228.364,243.653 220.591 C 244.096 214.504,245.712 211.040,248.561 210.072 C 249.223 209.846,249.199 209.807,248.270 209.594 C 247.187 209.346,232.700 209.289,231.125 209.526 M274.262 209.594 C 273.378 209.797,273.335 209.856,273.924 210.058 C 277.696 211.353,278.262 215.909,278.649 248.101 C 278.762 257.477,278.990 265.831,279.157 266.667 C 279.323 267.502,279.606 270.286,279.785 272.854 C 280.017 276.165,280.260 277.685,280.621 278.086 C 280.900 278.396,281.242 279.105,281.379 279.662 C 281.865 281.629,284.370 284.470,287.426 286.520 C 289.294 287.774,299.065 287.885,301.097 286.676 C 301.747 286.289,302.762 285.872,303.352 285.749 C 303.943 285.627,304.607 285.308,304.828 285.042 C 305.657 284.043,306.777 284.452,307.215 285.915 C 307.801 287.870,310.147 288.156,312.743 286.590 C 313.300 286.254,314.392 285.875,315.170 285.748 C 315.949 285.621,316.757 285.311,316.966 285.059 C 317.175 284.807,317.829 284.503,318.420 284.385 C 320.834 283.900,320.896 283.849,319.810 283.241 C 317.027 281.683,316.618 281.297,315.785 279.442 L 314.928 277.534 315.065 251.425 C 315.232 219.537,315.566 213.962,317.417 212.111 C 317.909 211.619,318.312 211.109,318.312 210.979 C 318.312 210.848,318.730 210.546,319.241 210.308 C 320.111 209.902,320.127 209.859,319.494 209.603 C 318.685 209.276,304.738 209.265,303.291 209.590 L 302.278 209.817 303.087 210.263 C 304.216 210.886,305.285 212.201,306.269 214.177 L 307.109 215.865 307.425 231.392 C 307.739 246.787,307.725 255.253,307.364 270.193 L 307.177 277.940 306.169 278.861 C 305.614 279.367,304.816 279.884,304.394 280.010 C 303.973 280.135,303.097 280.556,302.447 280.945 C 300.436 282.149,293.550 282.026,291.965 280.758 C 289.532 278.812,288.608 277.445,288.608 275.791 C 288.608 275.414,288.472 275.105,288.306 275.105 C 287.767 275.105,287.546 274.002,287.092 269.030 C 286.845 266.338,286.482 263.527,286.284 262.785 C 285.677 260.512,285.786 232.742,286.410 230.687 C 286.765 229.514,286.916 227.400,286.923 223.460 C 286.939 214.765,287.752 211.747,290.467 210.294 C 291.266 209.866,291.295 209.790,290.743 209.573 C 289.962 209.265,275.619 209.284,274.262 209.594 M329.709 209.563 C 329.208 209.761,329.295 209.934,330.299 210.735 C 330.947 211.252,331.477 211.877,331.477 212.125 C 331.477 212.373,331.696 212.758,331.965 212.980 C 332.233 213.203,332.626 214.223,332.839 215.248 C 333.052 216.272,333.478 217.665,333.786 218.344 C 334.288 219.449,334.356 222.043,334.439 243.207 C 334.556 272.762,334.073 280.707,331.958 283.959 C 331.508 284.651,331.139 285.512,331.139 285.872 C 331.139 286.232,330.949 286.603,330.717 286.696 C 329.626 287.136,344.925 286.871,347.004 286.414 C 348.211 286.148,349.654 285.923,350.211 285.914 C 350.768 285.905,351.603 285.683,352.068 285.421 C 352.532 285.160,353.519 284.655,354.262 284.300 C 355.004 283.945,355.820 283.401,356.075 283.093 C 356.330 282.784,356.717 282.532,356.934 282.532 C 357.352 282.532,360.844 279.203,360.844 278.805 C 360.844 278.678,361.300 278.000,361.857 277.300 C 362.414 276.599,362.869 275.763,362.869 275.442 C 362.869 275.121,363.160 274.490,363.514 274.039 C 363.869 273.588,364.320 272.351,364.516 271.292 C 364.712 270.232,365.063 269.023,365.297 268.606 C 365.892 267.545,365.899 258.677,365.305 257.638 C 365.067 257.221,364.718 256.006,364.530 254.938 C 364.167 252.879,362.531 249.139,361.686 248.438 C 361.409 248.207,361.181 247.812,361.181 247.559 C 361.181 246.864,356.282 242.109,354.871 241.435 C 352.592 240.345,352.660 239.335,355.180 236.875 C 358.971 233.173,359.494 231.843,359.494 225.892 L 359.494 220.888 358.269 218.403 C 356.901 215.624,352.975 211.438,351.431 211.111 C 350.946 211.008,349.865 210.695,349.030 210.415 C 348.194 210.135,346.827 209.775,345.992 209.615 C 344.195 209.270,330.558 209.226,329.709 209.563 M201.556 210.980 C 200.741 211.150,199.830 211.503,199.531 211.765 C 199.232 212.027,198.608 212.350,198.143 212.483 C 195.950 213.113,189.729 218.401,189.711 219.651 C 189.707 219.876,189.401 220.223,189.030 220.422 C 188.658 220.621,188.354 220.985,188.354 221.232 C 188.354 221.479,188.075 222.043,187.733 222.486 C 187.392 222.929,186.934 223.813,186.716 224.451 C 186.499 225.088,186.088 225.867,185.804 226.181 C 185.520 226.495,185.196 227.340,185.085 228.059 C 184.974 228.779,184.615 229.902,184.288 230.556 C 183.961 231.211,183.593 232.502,183.472 233.426 C 183.350 234.350,182.994 235.789,182.680 236.624 C 181.835 238.875,181.819 260.652,182.661 261.941 C 182.965 262.405,183.312 263.828,183.434 265.103 C 183.556 266.378,183.933 267.973,184.272 268.647 C 184.610 269.322,184.997 270.473,185.130 271.206 C 185.263 271.938,185.653 272.895,185.996 273.331 C 186.339 273.768,186.719 274.573,186.839 275.121 C 186.959 275.670,187.191 276.118,187.353 276.118 C 187.515 276.118,187.950 276.802,188.320 277.637 C 188.689 278.473,189.142 279.156,189.325 279.156 C 189.509 279.156,189.757 279.464,189.876 279.840 C 190.092 280.520,191.611 282.087,193.303 283.376 C 193.791 283.747,194.528 284.366,194.941 284.751 C 195.355 285.136,196.207 285.655,196.834 285.904 C 197.461 286.152,198.247 286.588,198.579 286.872 C 199.515 287.670,209.783 287.658,210.970 286.857 C 211.435 286.545,212.536 286.109,213.418 285.889 C 214.300 285.669,215.021 285.359,215.021 285.199 C 215.021 285.039,215.610 284.608,216.330 284.241 C 217.049 283.873,217.728 283.339,217.838 283.052 C 217.948 282.766,218.267 282.532,218.547 282.532 C 218.827 282.532,219.305 282.152,219.609 281.688 C 219.913 281.224,220.344 280.844,220.567 280.844 C 220.790 280.844,221.240 280.350,221.568 279.747 C 221.896 279.143,222.518 278.000,222.950 277.206 C 223.809 275.627,223.534 274.079,222.043 272.106 C 221.708 271.664,221.435 270.963,221.435 270.549 C 221.435 270.134,221.134 269.413,220.766 268.946 C 220.399 268.479,219.921 267.661,219.705 267.128 L 219.312 266.160 219.002 267.342 C 218.832 267.992,218.417 269.055,218.081 269.705 C 217.744 270.354,217.365 271.364,217.238 271.948 C 217.112 272.532,216.713 273.277,216.352 273.604 C 215.991 273.930,215.696 274.465,215.696 274.792 C 215.696 275.674,212.812 278.895,210.396 280.710 C 209.331 281.511,204.520 282.689,203.420 282.418 C 199.794 281.525,199.691 281.471,197.828 279.495 C 195.681 277.216,194.686 275.725,194.078 273.872 C 193.844 273.158,193.449 272.260,193.199 271.875 C 192.949 271.491,192.604 270.504,192.432 269.681 C 192.260 268.859,191.885 267.554,191.600 266.783 C 191.314 266.011,190.908 263.657,190.697 261.552 C 190.487 259.447,190.177 257.468,190.010 257.154 C 189.603 256.394,189.617 243.988,190.026 242.913 C 190.202 242.448,190.520 240.426,190.732 238.418 C 190.946 236.389,191.403 234.112,191.761 233.290 C 192.115 232.478,192.405 231.462,192.405 231.034 C 192.405 230.048,192.946 228.609,193.541 228.014 C 193.793 227.762,194.097 226.945,194.216 226.199 C 194.336 225.453,194.622 224.721,194.854 224.573 C 195.085 224.425,195.538 223.734,195.860 223.038 C 196.181 222.342,196.599 221.772,196.788 221.772 C 196.976 221.772,197.131 221.575,197.131 221.334 C 197.131 221.093,197.821 220.296,198.665 219.562 C 199.509 218.828,200.458 217.974,200.775 217.664 C 201.435 217.018,203.666 216.132,205.981 215.598 C 208.662 214.978,214.370 217.859,215.484 220.392 C 215.695 220.873,216.171 221.715,216.541 222.264 C 217.114 223.112,217.219 223.846,217.238 227.158 C 217.262 231.298,217.380 231.549,218.813 230.489 C 219.234 230.177,220.315 229.418,221.216 228.801 C 226.654 225.076,223.442 216.571,214.852 211.952 C 212.652 210.769,205.189 210.224,201.556 210.980 M347.191 216.348 C 353.150 220.128,353.942 229.636,348.745 235.021 C 347.895 235.903,346.961 236.624,346.670 236.624 C 346.380 236.624,345.842 236.830,345.476 237.082 C 342.210 239.324,341.913 238.384,342.020 226.137 L 342.110 215.885 342.954 215.453 C 344.027 214.905,345.358 215.186,347.191 216.348 M345.894 244.032 C 349.097 244.639,353.753 248.586,355.356 252.050 C 355.682 252.756,356.071 253.423,356.220 253.533 C 357.394 254.398,358.553 265.136,357.705 267.289 C 357.438 267.968,357.109 269.277,356.975 270.198 C 356.841 271.118,356.441 272.240,356.087 272.690 C 355.733 273.140,355.443 273.703,355.443 273.941 C 355.443 275.183,350.657 279.589,348.832 280.026 C 348.291 280.156,347.673 280.399,347.459 280.567 C 345.937 281.761,342.900 281.460,342.441 280.070 C 341.973 278.655,341.826 244.765,342.285 244.212 C 342.767 243.631,343.570 243.591,345.894 244.032 " stroke="none" fill="#3b3b3b" fill-rule="evenodd"></path><path id="path2" d="M0.000 168.776 L 0.000 337.553 200.000 337.553 L 400.000 337.553 400.000 168.776 L 400.000 0.000 200.000 0.000 L 0.000 0.000 0.000 168.776 M258.892 36.269 C 260.279 36.816,261.646 37.457,261.930 37.692 C 262.215 37.928,262.977 38.472,263.624 38.902 C 264.271 39.331,264.968 40.019,265.173 40.430 C 265.378 40.841,265.811 41.471,266.136 41.830 C 266.461 42.189,266.855 42.987,267.011 43.604 C 267.168 44.221,267.572 45.409,267.909 46.245 C 268.493 47.689,268.528 50.582,268.619 105.148 C 268.723 166.855,268.730 166.572,266.994 169.958 C 264.652 174.528,263.243 175.988,259.495 177.733 L 257.722 178.559 195.949 178.561 L 134.177 178.563 132.308 177.632 C 131.281 177.120,130.217 176.520,129.946 176.298 C 127.908 174.634,127.159 173.857,126.600 172.827 C 125.166 170.185,123.945 167.539,123.729 166.605 C 123.603 166.061,123.512 139.218,123.526 106.954 L 123.552 48.292 124.588 45.074 C 125.158 43.305,125.771 41.857,125.951 41.857 C 126.132 41.857,126.500 41.328,126.770 40.682 C 127.040 40.036,127.678 39.254,128.187 38.946 C 128.697 38.637,129.494 38.131,129.958 37.822 C 130.962 37.153,134.279 35.794,135.798 35.429 C 136.392 35.287,163.764 35.193,196.624 35.222 L 256.371 35.274 258.892 36.269 M193.305 69.761 C 193.181 69.885,193.080 77.677,193.080 87.077 C 193.080 98.670,192.965 104.284,192.722 104.527 C 192.475 104.773,187.035 104.838,175.201 104.735 C 158.768 104.591,158.032 104.611,157.888 105.204 C 157.805 105.544,157.753 114.861,157.772 125.907 L 157.806 145.992 177.722 146.085 C 188.675 146.136,197.978 146.096,198.394 145.995 L 199.150 145.811 199.237 128.349 L 199.325 110.886 216.709 110.717 L 234.093 110.549 234.180 90.042 L 234.267 69.536 213.899 69.536 C 202.696 69.536,193.429 69.637,193.305 69.761 M227.906 75.833 C 228.694 76.546,228.877 103.026,228.101 104.065 C 227.640 104.684,200.499 105.133,199.578 104.537 C 198.818 104.045,198.982 76.085,199.747 75.639 C 200.868 74.986,227.170 75.167,227.906 75.833 M206.132 82.588 C 205.546 83.174,205.891 97.230,206.498 97.479 C 206.823 97.612,210.278 97.722,214.177 97.722 L 221.266 97.722 221.357 90.042 L 221.447 82.363 213.902 82.363 C 209.753 82.363,206.256 82.464,206.132 82.588 M192.321 110.914 L 193.080 111.068 193.080 125.171 C 193.080 135.690,192.977 139.377,192.675 139.679 C 192.057 140.298,164.615 140.258,164.101 139.638 C 163.697 139.152,163.493 111.501,163.890 111.103 C 164.355 110.636,190.104 110.465,192.321 110.914 M170.689 118.031 C 170.211 118.510,170.436 132.552,170.929 132.961 C 171.253 133.231,173.571 133.319,178.608 133.256 L 185.823 133.165 185.914 125.485 L 186.004 117.806 178.459 117.806 C 174.309 117.806,170.813 117.907,170.689 118.031 M64.798 209.261 C 65.496 210.565,65.240 219.559,64.485 220.242 C 63.773 220.886,62.785 220.735,62.785 219.982 C 62.785 219.006,60.675 217.621,58.488 217.163 C 57.301 216.914,56.046 216.558,55.698 216.372 C 55.350 216.186,53.992 216.034,52.680 216.034 L 50.295 216.034 50.295 248.060 L 50.295 280.087 51.134 281.919 C 51.595 282.927,52.355 284.083,52.822 284.489 C 53.289 284.895,53.671 285.381,53.671 285.567 C 53.671 285.754,53.880 285.907,54.136 285.907 C 55.065 285.907,55.528 286.895,54.896 287.527 C 54.386 288.038,53.362 288.101,45.642 288.101 C 34.299 288.101,33.832 287.963,36.571 285.415 C 39.454 282.732,39.694 281.730,40.171 270.380 C 40.847 254.313,40.642 218.180,39.863 216.118 C 39.737 215.783,35.009 216.124,34.239 216.523 C 33.720 216.793,32.501 217.112,31.530 217.234 C 30.269 217.391,29.565 217.685,29.062 218.263 C 28.675 218.708,28.209 219.072,28.026 219.072 C 27.842 219.072,27.598 219.445,27.484 219.902 C 27.172 221.144,26.518 221.562,25.952 220.881 C 25.308 220.105,25.053 209.838,25.660 209.107 C 26.394 208.222,64.322 208.371,64.798 209.261 M89.700 209.123 C 90.651 209.790,90.394 210.401,88.940 210.926 C 88.300 211.158,87.288 211.832,86.691 212.425 L 85.605 213.502 85.399 218.228 C 85.285 220.838,85.013 223.284,84.791 223.691 C 83.998 225.143,84.270 238.650,85.112 239.662 L 85.813 240.506 93.273 240.610 C 101.655 240.726,102.013 240.683,102.543 239.519 C 103.259 237.948,102.414 216.584,101.555 214.537 C 100.818 212.780,99.267 210.970,98.498 210.970 C 98.246 210.970,97.683 210.720,97.246 210.414 L 96.452 209.858 97.256 209.240 C 98.377 208.378,116.168 208.275,117.379 209.123 C 118.352 209.805,118.053 210.442,116.522 210.952 C 115.670 211.236,114.885 211.898,114.046 213.042 L 112.818 214.718 112.567 223.730 C 112.288 233.771,112.585 279.803,112.939 281.282 C 113.163 282.216,116.332 285.713,117.637 286.465 C 118.286 286.839,118.289 286.878,117.710 287.478 C 116.842 288.375,98.538 288.440,97.281 287.550 L 96.502 286.999 97.411 286.284 C 97.910 285.891,98.526 285.570,98.780 285.570 C 99.033 285.570,99.241 285.366,99.241 285.117 C 99.241 284.869,99.620 284.492,100.084 284.281 C 100.623 284.036,100.929 283.619,100.930 283.130 C 100.931 282.708,101.139 281.966,101.392 281.481 C 102.353 279.640,103.445 247.270,102.565 246.712 C 102.063 246.395,86.339 246.307,85.189 246.615 L 84.471 246.808 84.243 266.948 C 84.018 286.760,83.820 290.181,82.851 290.986 C 82.582 291.209,82.363 291.679,82.363 292.032 C 82.363 292.830,79.417 295.853,78.297 296.204 C 77.841 296.347,77.106 296.747,76.663 297.093 C 74.485 298.794,68.523 297.614,68.523 295.482 C 68.523 295.228,68.368 295.021,68.178 295.021 C 67.989 295.021,67.656 294.603,67.439 294.093 C 67.222 293.582,66.758 292.839,66.409 292.442 C 64.732 290.533,66.833 288.354,69.153 289.596 C 69.633 289.853,70.120 289.820,70.947 289.475 C 72.991 288.621,73.353 287.906,73.841 283.774 C 74.086 281.698,74.436 278.785,74.619 277.300 C 75.720 268.362,75.271 220.412,74.039 215.423 C 73.466 213.101,71.959 210.982,70.877 210.974 C 69.223 210.963,68.590 209.509,69.992 208.943 C 71.387 208.380,88.867 208.540,89.700 209.123 M156.908 209.198 C 157.572 209.762,157.580 209.852,157.078 211.139 C 156.648 212.241,156.069 215.638,155.970 217.636 C 155.959 217.868,155.391 218.676,154.708 219.431 L 153.466 220.806 153.032 220.023 C 152.793 219.593,152.592 218.970,152.586 218.639 C 152.569 217.803,150.384 215.696,149.534 215.696 C 149.149 215.696,148.238 215.392,147.511 215.021 C 145.437 213.963,140.097 214.024,140.054 215.105 C 140.037 215.523,139.876 218.979,139.695 222.785 C 139.515 226.591,139.291 232.078,139.197 234.979 L 139.026 240.254 139.904 241.201 C 140.751 242.115,140.835 242.134,142.374 241.754 C 143.250 241.538,145.013 241.200,146.293 241.004 C 148.981 240.591,150.182 239.793,151.065 237.831 L 151.662 236.507 152.260 237.245 C 153.063 238.237,153.383 241.542,153.164 246.599 C 152.932 251.969,152.160 253.441,150.886 250.939 C 149.499 248.216,142.780 246.478,139.800 248.073 L 139.049 248.475 139.199 256.642 C 139.391 267.093,139.973 281.416,140.233 282.094 C 140.482 282.742,144.534 282.449,146.096 281.669 C 146.633 281.401,147.785 281.085,148.657 280.965 C 150.692 280.686,151.947 279.527,152.714 277.219 L 153.301 275.450 154.452 276.671 C 155.721 278.016,156.282 279.581,156.285 281.783 C 156.286 282.578,156.515 283.774,156.793 284.440 C 158.379 288.236,158.229 288.272,140.855 288.262 C 124.726 288.253,121.920 287.929,124.233 286.345 C 127.076 284.398,128.402 282.106,129.367 277.468 C 130.193 273.502,129.919 219.968,129.059 217.384 C 128.658 216.177,128.244 214.810,128.139 214.346 C 127.912 213.346,126.206 211.541,124.569 210.572 L 123.399 209.879 124.184 209.243 C 125.355 208.295,155.794 208.253,156.908 209.198 M250.037 209.123 C 250.989 209.790,250.690 210.530,249.350 210.824 C 247.956 211.130,246.515 212.716,246.046 214.461 C 245.838 215.233,245.494 215.973,245.282 216.106 C 244.996 216.284,244.871 225.008,244.805 249.439 L 244.716 282.532 245.480 282.529 C 246.146 282.527,250.627 281.846,253.671 281.284 C 254.228 281.181,254.841 280.972,255.034 280.820 C 255.524 280.432,254.964 273.867,254.329 272.574 C 254.019 271.940,253.724 269.746,253.541 266.713 C 253.381 264.047,253.097 261.768,252.910 261.650 C 252.242 261.227,253.498 250.404,254.325 249.457 C 254.571 249.175,254.882 248.587,255.016 248.148 C 256.288 243.980,262.778 240.508,263.961 243.362 C 264.183 243.900,264.580 244.422,264.841 244.522 C 265.103 244.622,265.316 244.901,265.316 245.141 C 265.316 245.380,265.696 245.986,266.160 246.487 C 266.624 246.987,267.004 247.576,267.004 247.795 C 267.004 248.014,267.346 248.540,267.764 248.965 C 269.470 250.700,270.086 251.797,269.980 252.907 L 269.873 254.008 267.108 254.177 C 264.466 254.339,264.296 254.398,263.279 255.527 L 262.214 256.709 262.366 264.304 C 262.487 270.377,262.624 272.102,263.053 272.911 C 263.934 274.575,264.583 286.786,263.830 287.539 C 263.233 288.136,236.911 288.599,232.016 288.098 C 229.393 287.830,228.360 287.171,229.367 286.408 C 231.263 284.973,232.491 283.535,232.696 282.513 C 232.819 281.898,233.177 281.110,233.491 280.763 C 234.096 280.094,234.524 273.653,234.576 264.408 C 234.589 262.055,234.744 260.204,234.937 260.084 C 235.152 259.951,235.274 255.137,235.274 246.751 C 235.274 238.365,235.152 233.551,234.937 233.418 C 234.743 233.298,234.586 231.382,234.568 228.925 C 234.503 219.885,234.159 215.962,233.330 214.798 C 232.914 214.214,232.574 213.557,232.574 213.340 C 232.574 212.784,230.835 211.107,229.975 210.834 C 228.685 210.424,228.397 209.747,229.257 209.144 C 230.381 208.357,248.917 208.338,250.037 209.123 M292.347 209.236 L 293.123 209.864 291.698 210.807 C 290.914 211.326,289.787 212.448,289.195 213.301 L 288.117 214.852 287.878 224.810 C 287.611 235.958,287.806 269.184,288.150 271.038 C 288.272 271.697,288.566 272.540,288.802 272.911 C 289.039 273.283,289.337 274.194,289.465 274.937 C 289.729 276.468,291.501 279.494,292.135 279.494 C 292.365 279.494,292.829 279.797,293.165 280.169 C 294.043 281.139,299.323 281.159,300.888 280.197 C 301.467 279.841,302.513 279.444,303.211 279.315 C 303.910 279.185,304.594 278.891,304.730 278.661 C 304.867 278.430,305.327 278.059,305.752 277.836 L 306.526 277.430 306.418 247.998 L 306.310 218.565 305.534 215.867 C 304.699 212.964,303.728 211.629,301.857 210.810 C 300.566 210.245,300.485 209.851,301.510 209.133 C 302.418 208.497,319.881 208.339,321.035 208.957 C 322.006 209.477,321.827 210.238,320.591 210.845 C 319.987 211.141,318.890 212.163,318.153 213.118 L 316.813 214.852 316.679 246.669 C 316.577 270.882,316.641 278.719,316.949 279.462 C 317.312 280.338,320.223 282.532,321.023 282.532 C 322.621 282.532,321.990 284.451,320.239 284.917 C 319.458 285.125,318.572 285.515,318.270 285.784 C 317.968 286.053,317.132 286.365,316.413 286.477 C 315.694 286.589,314.710 286.957,314.226 287.295 C 313.742 287.633,312.707 288.011,311.925 288.136 C 311.143 288.261,310.287 288.580,310.023 288.844 C 308.816 290.051,307.076 289.271,306.497 287.261 C 306.165 286.111,305.864 285.567,305.704 285.826 C 305.562 286.057,304.771 286.415,303.946 286.623 C 303.122 286.830,302.447 287.128,302.447 287.284 C 302.447 287.679,300.359 288.163,297.553 288.419 C 296.253 288.538,294.704 288.808,294.110 289.021 C 293.276 289.318,292.814 289.308,292.084 288.976 C 291.564 288.739,290.372 288.420,289.433 288.267 C 286.451 287.782,280.844 283.167,280.844 281.198 C 280.844 280.868,280.525 280.192,280.135 279.696 C 279.712 279.158,279.306 277.947,279.131 276.696 C 278.969 275.543,278.589 273.764,278.287 272.743 C 277.813 271.139,277.705 267.526,277.495 246.226 C 277.362 232.663,277.120 221.353,276.959 221.093 C 276.798 220.832,276.475 218.942,276.242 216.892 C 275.888 213.788,275.701 213.087,275.124 212.701 C 274.742 212.447,274.430 212.025,274.430 211.765 C 274.430 211.504,274.018 211.134,273.513 210.943 C 271.873 210.319,271.656 209.959,272.496 209.258 C 273.652 208.294,291.159 208.274,292.347 209.236 M349.923 209.330 C 350.267 209.634,351.043 209.988,351.647 210.116 C 352.822 210.366,353.715 211.016,355.832 213.165 C 358.106 215.472,358.399 215.840,358.659 216.709 C 358.798 217.173,359.177 217.893,359.502 218.309 C 360.468 219.547,361.001 225.129,360.532 229.105 C 360.106 232.714,358.429 235.898,355.883 237.929 C 354.551 238.992,354.468 239.788,355.612 240.537 C 356.076 240.841,357.025 241.620,357.721 242.267 C 358.418 242.914,359.329 243.674,359.747 243.955 C 360.165 244.236,360.506 244.660,360.506 244.897 C 360.506 245.134,360.736 245.417,361.018 245.525 C 361.299 245.633,361.675 246.105,361.853 246.574 C 362.032 247.043,362.320 247.426,362.495 247.426 C 362.670 247.426,363.074 248.108,363.392 248.940 C 363.710 249.773,364.178 250.627,364.432 250.838 C 364.686 251.049,364.895 251.591,364.895 252.043 C 364.895 252.495,365.221 253.577,365.621 254.449 C 367.038 257.541,367.224 268.061,365.908 270.717 C 365.587 271.367,365.215 272.506,365.082 273.249 C 364.949 273.992,364.568 274.903,364.236 275.274 C 363.904 275.646,363.542 276.338,363.430 276.812 C 363.148 278.011,358.569 283.207,357.795 283.207 C 357.619 283.207,357.284 283.511,357.052 283.882 C 356.821 284.253,356.462 284.557,356.257 284.557 C 356.051 284.557,355.214 285.010,354.397 285.563 C 353.580 286.117,352.532 286.573,352.068 286.576 C 351.603 286.580,350.388 286.916,349.367 287.323 C 347.618 288.020,346.971 288.064,338.156 288.082 C 326.967 288.105,326.660 288.017,329.158 285.499 C 331.887 282.748,331.938 282.607,332.413 276.456 C 334.345 251.438,333.796 217.155,331.420 214.452 C 331.124 214.115,330.779 213.502,330.653 213.090 C 330.527 212.677,329.826 211.827,329.094 211.201 C 326.262 208.776,326.998 208.592,339.121 208.692 C 347.992 208.766,349.378 208.847,349.923 209.330 M211.814 209.620 C 212.557 209.979,213.486 210.278,213.879 210.284 C 214.271 210.290,214.955 210.571,215.398 210.909 C 215.840 211.246,216.696 211.720,217.300 211.962 C 217.903 212.205,218.397 212.531,218.397 212.688 C 218.397 212.846,218.759 213.169,219.202 213.407 C 220.237 213.963,223.287 217.633,223.630 218.734 C 223.774 219.198,224.174 220.107,224.520 220.754 C 225.419 222.439,225.392 225.835,224.473 226.667 C 224.101 227.003,223.796 227.444,223.794 227.647 C 223.789 228.189,221.727 230.084,220.844 230.358 C 220.426 230.488,220.084 230.734,220.084 230.906 C 220.084 231.078,219.515 231.515,218.819 231.878 C 218.122 232.241,217.221 232.718,216.815 232.938 C 215.151 233.839,214.381 232.129,215.696 230.456 C 216.662 229.229,216.662 224.694,215.696 223.460 C 215.333 222.996,215.032 222.312,215.027 221.941 C 215.019 221.330,214.228 220.388,212.074 218.422 C 210.201 216.712,204.095 216.577,202.163 218.202 C 201.595 218.680,201.019 219.072,200.884 219.072 C 200.498 219.072,198.143 221.319,198.143 221.687 C 198.143 221.868,197.688 222.590,197.131 223.291 C 196.574 223.992,196.118 224.754,196.118 224.984 C 196.118 225.214,195.904 225.581,195.641 225.798 C 195.379 226.016,194.986 226.938,194.768 227.848 C 194.550 228.758,194.166 229.672,193.916 229.880 C 193.665 230.088,193.357 231.121,193.231 232.176 C 193.105 233.230,192.678 234.852,192.282 235.781 C 191.166 238.393,191.166 262.195,192.281 264.810 C 192.677 265.738,193.108 267.257,193.239 268.186 C 193.370 269.114,193.675 270.101,193.916 270.380 C 194.158 270.658,194.463 271.418,194.595 272.068 C 194.726 272.717,195.081 273.629,195.382 274.093 C 195.683 274.557,196.162 275.332,196.446 275.816 C 197.808 278.136,198.581 279.142,199.136 279.319 C 199.469 279.424,200.014 279.811,200.345 280.177 C 201.143 281.059,207.566 281.186,208.273 280.334 C 208.506 280.053,209.322 279.538,210.087 279.189 C 211.956 278.337,214.992 274.873,215.015 273.568 C 215.018 273.372,215.401 272.697,215.865 272.068 C 216.329 271.438,216.709 270.566,216.709 270.128 C 216.709 269.690,217.000 268.770,217.356 268.084 C 217.712 267.397,218.164 266.418,218.361 265.907 C 218.805 264.757,219.941 264.656,220.269 265.738 C 220.396 266.156,220.771 266.802,221.104 267.173 C 221.436 267.544,221.898 268.491,222.129 269.277 C 222.361 270.063,222.831 270.960,223.174 271.271 C 223.517 271.581,223.798 272.077,223.800 272.373 C 223.801 272.669,224.104 273.367,224.473 273.924 C 225.507 275.486,224.333 279.809,222.869 279.826 C 222.637 279.829,222.447 279.984,222.447 280.171 C 222.447 280.766,218.617 284.442,217.215 285.192 C 216.473 285.589,215.637 286.039,215.359 286.191 C 212.948 287.507,211.710 288.023,210.355 288.277 C 209.487 288.440,207.865 288.777,206.751 289.027 C 204.788 289.466,203.264 289.343,201.350 288.589 C 200.979 288.443,199.941 288.237,199.044 288.131 C 198.147 288.025,197.025 287.633,196.551 287.260 C 196.077 286.887,195.412 286.582,195.072 286.582 C 194.732 286.582,194.311 286.316,194.137 285.992 C 193.962 285.667,193.121 284.879,192.268 284.241 C 191.415 283.603,190.717 282.937,190.717 282.761 C 190.717 282.585,190.376 282.094,189.958 281.672 C 188.522 280.218,186.007 276.522,185.998 275.851 C 185.994 275.612,185.684 274.999,185.307 274.490 C 184.931 273.981,184.526 272.962,184.408 272.225 C 184.289 271.489,183.928 270.506,183.606 270.042 C 183.283 269.578,182.920 268.377,182.799 267.373 C 182.678 266.370,182.335 265.079,182.036 264.504 C 180.456 261.465,180.443 236.746,182.019 234.248 C 182.307 233.791,182.708 232.446,182.909 231.259 C 183.110 230.072,183.487 228.857,183.746 228.559 C 184.006 228.261,184.317 227.463,184.439 226.785 C 184.560 226.108,184.959 225.173,185.325 224.707 C 185.692 224.241,185.992 223.630,185.992 223.348 C 185.992 223.067,186.371 222.385,186.835 221.834 C 187.300 221.282,187.679 220.743,187.679 220.636 C 187.679 219.609,192.443 214.383,194.245 213.433 C 194.793 213.145,195.449 212.700,195.704 212.446 C 195.958 212.191,196.363 211.983,196.603 211.983 C 196.843 211.983,197.423 211.681,197.892 211.313 C 198.361 210.944,199.634 210.428,200.722 210.167 C 201.810 209.905,203.080 209.533,203.544 209.340 C 205.062 208.707,210.291 208.884,211.814 209.620 M343.629 216.619 C 343.350 216.724,343.011 216.977,342.874 217.181 C 342.484 217.766,342.561 235.875,342.955 236.119 C 344.733 237.218,349.320 233.956,349.996 231.113 C 350.180 230.338,350.572 228.836,350.869 227.775 C 351.377 225.956,351.370 225.735,350.760 223.893 C 350.404 222.820,350.014 221.468,349.892 220.890 C 349.771 220.312,349.299 219.516,348.844 219.120 C 348.389 218.725,348.017 218.278,348.017 218.128 C 348.017 217.917,345.956 217.002,344.313 216.484 C 344.215 216.453,343.907 216.514,343.629 216.619 M342.771 245.147 C 341.888 247.448,343.480 278.670,344.525 279.537 C 346.338 281.041,353.841 276.262,354.663 273.080 C 354.782 272.616,355.220 271.595,355.636 270.812 C 357.128 267.998,357.023 257.914,355.470 254.918 C 355.115 254.232,354.649 253.291,354.436 252.827 C 353.108 249.941,350.159 246.685,348.492 246.267 C 347.975 246.137,347.376 245.790,347.160 245.495 C 346.603 244.733,343.038 244.450,342.771 245.147 M366.177 308.928 C 366.703 309.454,366.703 312.656,366.177 313.181 C 365.368 313.991,34.201 313.744,33.767 312.934 C 33.575 312.574,33.418 311.729,33.418 311.055 C 33.418 310.381,33.575 309.535,33.767 309.176 C 34.201 308.366,365.368 308.119,366.177 308.928 " stroke="none" fill="#fbfbfb" fill-rule="evenodd"></path><path id="path3" d="M157.054 116.456 C 157.054 117.291,157.120 117.633,157.200 117.215 C 157.281 116.797,157.281 116.114,157.200 115.696 C 157.120 115.278,157.054 115.620,157.054 116.456 M124.002 134.515 C 124.001 136.186,124.058 136.912,124.129 136.128 C 124.199 135.345,124.200 133.978,124.130 133.090 C 124.061 132.203,124.003 132.844,124.002 134.515 M25.975 209.435 C 25.461 209.949,25.605 218.392,26.148 219.578 C 26.403 220.135,26.624 220.418,26.639 220.208 C 26.681 219.621,29.460 217.046,30.050 217.046 C 30.337 217.046,31.402 216.760,32.417 216.409 C 34.996 215.518,39.131 215.179,39.961 215.791 C 41.127 216.651,41.913 251.731,41.051 264.473 C 40.925 266.329,40.679 270.698,40.503 274.182 C 40.132 281.540,39.676 283.122,37.237 285.522 C 36.415 286.331,35.839 287.091,35.958 287.210 C 36.237 287.490,52.900 287.692,53.951 287.428 L 54.750 287.228 53.957 286.459 C 52.549 285.093,50.998 283.101,50.386 281.873 C 49.470 280.035,49.461 216.724,50.376 215.808 C 51.072 215.113,56.617 215.620,58.400 216.542 C 58.937 216.819,59.690 217.046,60.075 217.046 C 60.460 217.046,61.417 217.637,62.202 218.359 C 63.502 219.556,63.674 219.624,64.135 219.128 C 64.890 218.317,65.085 209.704,64.355 209.424 C 63.459 209.080,26.319 209.090,25.975 209.435 M70.549 209.441 L 69.705 209.913 70.886 210.428 C 75.362 212.382,75.616 214.396,75.623 248.101 C 75.631 281.910,75.070 287.814,71.656 289.815 C 70.157 290.693,70.111 290.698,68.317 290.188 C 66.983 289.809,66.488 289.777,66.459 290.067 C 66.370 290.977,66.590 291.847,67.036 292.347 C 67.297 292.640,67.511 292.975,67.511 293.090 C 67.511 293.447,69.609 296.516,70.158 296.962 C 72.925 299.210,80.235 295.466,82.455 290.664 L 83.484 288.439 83.852 267.342 L 84.219 246.245 87.595 245.973 C 92.107 245.609,102.549 245.938,103.182 246.463 C 103.571 246.786,103.633 247.691,103.500 251.111 C 103.410 253.447,103.194 260.979,103.020 267.848 L 102.704 280.338 101.785 282.292 C 100.950 284.068,99.088 286.305,98.109 286.709 C 96.635 287.316,99.513 287.585,107.511 287.585 C 116.020 287.585,118.074 287.367,116.787 286.603 C 113.520 284.663,112.612 282.690,112.272 276.793 C 111.904 270.413,111.869 225.004,112.227 218.903 C 112.547 213.447,113.389 211.697,116.287 210.458 L 117.637 209.880 116.624 209.428 C 115.333 208.851,99.233 208.745,98.184 209.306 C 97.452 209.698,97.854 210.633,98.755 210.633 C 99.473 210.633,101.128 212.370,101.972 214.008 C 102.711 215.445,102.768 216.038,103.021 224.979 C 103.168 230.177,103.382 235.253,103.495 236.259 C 104.031 241.012,103.886 241.079,93.292 240.946 C 82.964 240.816,84.042 241.851,84.084 232.111 C 84.159 214.798,84.715 212.153,88.640 210.452 L 89.958 209.880 88.945 209.428 C 87.456 208.763,71.742 208.774,70.549 209.441 M125.129 209.320 C 124.492 209.691,124.881 210.633,125.671 210.633 C 126.479 210.633,128.233 213.139,129.149 215.600 L 130.127 218.228 130.110 248.439 L 130.092 278.650 129.118 281.013 C 128.138 283.388,125.765 286.582,124.979 286.582 C 124.266 286.582,124.512 287.167,125.316 287.382 C 126.308 287.648,154.536 287.648,155.527 287.382 C 157.332 286.899,155.470 277.468,153.570 277.468 C 153.440 277.468,153.123 277.904,152.865 278.435 C 152.220 279.767,150.612 281.044,149.198 281.347 C 148.549 281.486,147.637 281.791,147.173 282.024 C 146.167 282.530,140.749 282.998,140.221 282.624 C 139.400 282.044,138.830 273.329,138.527 256.748 C 138.335 246.242,137.977 246.937,143.460 247.178 C 148.363 247.394,150.712 248.437,151.653 250.817 C 151.822 251.243,151.895 251.241,152.205 250.802 C 152.587 250.261,152.731 239.453,152.369 238.509 C 152.091 237.785,151.651 237.836,151.402 238.620 C 150.661 240.953,141.415 243.512,139.072 242.033 C 138.004 241.358,138.834 215.541,139.964 214.292 C 141.868 212.189,151.670 215.063,152.925 218.092 C 153.929 220.516,155.421 217.908,156.132 212.489 C 156.254 211.561,156.484 210.557,156.644 210.259 C 157.282 209.067,155.771 208.945,140.490 208.955 C 130.815 208.962,125.529 209.088,125.129 209.320 M230.108 209.320 C 229.438 209.710,229.877 210.633,230.733 210.633 C 231.192 210.633,231.993 211.560,233.506 213.840 C 234.299 215.035,234.434 215.674,234.689 219.409 C 234.847 221.730,235.130 225.831,235.317 228.523 C 235.775 235.098,235.780 258.763,235.324 265.485 C 235.123 268.456,234.828 273.089,234.668 275.781 C 234.339 281.303,233.726 283.017,231.132 285.663 C 230.123 286.693,229.918 287.078,230.264 287.298 C 231.041 287.790,262.812 287.670,263.203 287.173 C 264.008 286.152,263.600 276.174,262.652 273.681 C 262.491 273.257,262.097 270.166,261.777 266.811 C 260.769 256.259,261.684 253.890,266.908 253.520 C 269.005 253.371,269.514 253.231,269.428 252.827 C 269.249 251.988,267.915 249.451,267.653 249.451 C 267.518 249.451,267.093 248.958,266.708 248.354 C 266.322 247.751,265.586 246.664,265.071 245.938 C 264.556 245.213,263.896 244.226,263.604 243.744 C 261.442 240.185,255.063 246.444,253.855 253.311 C 253.227 256.875,253.727 266.220,254.830 271.561 C 255.022 272.489,255.321 274.692,255.495 276.456 C 255.670 278.219,255.907 279.904,256.023 280.199 C 256.516 281.457,253.356 282.408,248.101 282.583 L 244.557 282.700 244.298 276.624 C 244.155 273.283,244.080 258.473,244.129 243.713 L 244.219 216.878 244.979 215.433 C 245.397 214.638,245.738 213.787,245.738 213.542 C 245.738 212.861,247.569 211.094,248.957 210.436 L 250.194 209.849 249.401 209.409 C 248.389 208.848,231.057 208.768,230.108 209.320 M273.315 209.320 C 272.672 209.694,273.057 210.605,273.881 210.657 C 276.903 210.851,277.613 217.075,277.982 246.582 C 278.315 273.256,278.837 277.537,282.392 282.775 C 286.532 288.875,296.108 290.074,304.899 285.593 L 306.169 284.946 306.671 285.916 C 306.947 286.450,307.173 287.202,307.173 287.589 C 307.173 288.849,310.803 288.550,313.085 287.102 C 313.459 286.865,314.295 286.555,314.942 286.413 C 315.589 286.271,316.878 285.803,317.806 285.373 C 318.734 284.944,319.911 284.506,320.422 284.400 C 321.809 284.111,321.579 283.725,319.043 282.085 C 315.622 279.871,315.847 282.487,316.066 247.540 C 316.291 211.629,316.161 212.868,319.965 210.604 C 322.113 209.326,321.060 209.123,311.724 209.013 C 304.804 208.932,302.965 209.006,302.225 209.394 L 301.307 209.875 302.299 210.392 C 306.791 212.737,307.189 216.016,307.137 250.295 C 307.093 279.280,307.139 278.894,303.629 279.691 C 303.072 279.818,302.087 280.205,301.440 280.551 C 299.404 281.642,293.822 281.461,292.230 280.253 C 289.366 278.080,287.954 274.341,287.483 267.679 C 287.114 262.461,287.078 234.989,287.425 222.954 L 287.659 214.852 288.724 213.112 C 289.310 212.155,290.364 211.016,291.068 210.581 L 292.347 209.789 291.405 209.382 C 290.184 208.855,274.209 208.800,273.315 209.320 M328.987 209.369 C 328.381 209.822,328.395 209.874,329.325 210.603 C 330.598 211.602,332.472 214.626,332.482 215.697 C 332.486 216.162,332.811 217.605,333.204 218.904 C 334.046 221.687,334.368 266.313,333.582 271.224 C 333.374 272.523,333.020 275.548,332.795 277.944 C 332.358 282.600,331.096 285.510,329.025 286.637 L 328.270 287.047 329.114 287.287 C 330.330 287.633,344.863 287.610,346.667 287.259 C 350.451 286.523,352.920 285.853,353.401 285.432 C 353.689 285.180,354.255 284.874,354.659 284.751 C 356.754 284.113,363.207 277.585,363.207 276.103 C 363.207 275.790,363.520 275.136,363.902 274.650 C 364.285 274.164,364.686 273.194,364.794 272.495 C 364.902 271.796,365.225 270.768,365.513 270.211 C 366.427 268.441,366.502 259.231,365.626 256.323 C 365.243 255.050,364.768 253.381,364.572 252.613 C 364.375 251.846,363.988 251.030,363.711 250.800 C 363.434 250.570,363.207 250.121,363.207 249.802 C 363.207 248.535,357.263 241.949,355.352 241.099 C 353.947 240.475,353.481 238.967,354.490 238.313 C 355.799 237.464,358.481 234.456,358.481 233.837 C 358.481 233.684,358.823 233.097,359.241 232.532 C 360.536 230.780,360.387 221.391,359.020 218.565 C 357.014 214.421,354.083 211.632,350.062 210.040 C 347.336 208.960,330.262 208.417,328.987 209.369 M63.882 209.612 C 64.183 209.622,64.226 217.429,63.929 218.203 C 63.758 218.650,63.531 218.570,62.567 217.724 C 61.931 217.166,61.148 216.709,60.827 216.709 C 60.506 216.709,59.642 216.387,58.908 215.993 C 57.799 215.399,56.943 215.270,53.859 215.234 L 50.146 215.190 49.630 216.203 C 49.034 217.372,48.854 271.673,49.424 278.592 C 49.722 282.211,49.740 282.267,51.192 284.136 C 53.448 287.042,53.708 286.920,45.264 286.920 L 37.869 286.920 38.061 286.160 C 38.167 285.743,38.355 285.325,38.481 285.232 C 39.812 284.245,40.479 281.901,40.689 277.467 C 40.825 274.602,41.092 272.496,41.407 271.793 C 42.738 268.825,42.318 218.648,40.943 216.289 C 39.531 213.867,30.945 215.057,27.537 218.147 C 26.613 218.984,26.485 219.018,26.274 218.484 C 25.899 217.536,25.947 209.691,26.329 209.564 C 26.569 209.484,61.464 209.528,63.882 209.612 M87.595 209.586 C 88.838 209.830,88.878 209.870,88.095 210.090 C 86.875 210.433,85.228 212.269,84.729 213.840 C 84.493 214.582,84.155 215.374,83.977 215.598 C 83.285 216.471,83.197 239.918,83.882 240.676 C 84.464 241.319,84.923 241.350,93.723 241.350 C 105.075 241.350,104.434 241.636,104.179 236.687 C 104.087 234.889,103.851 230.000,103.656 225.823 C 103.198 216.036,103.004 214.107,102.420 213.523 C 102.157 213.260,101.941 212.911,101.941 212.749 C 101.941 212.253,99.801 210.387,98.903 210.099 C 97.311 209.589,100.401 209.321,107.848 209.326 C 115.416 209.330,116.904 209.520,115.436 210.291 C 111.412 212.404,111.286 213.532,111.297 247.426 C 111.307 278.585,111.480 281.633,113.389 284.219 C 113.869 284.869,114.453 285.743,114.686 286.160 L 115.111 286.920 107.545 286.920 L 99.979 286.920 100.159 286.160 C 100.258 285.743,100.516 285.249,100.731 285.063 C 100.946 284.878,101.546 283.995,102.064 283.103 L 103.005 281.480 103.325 270.276 C 103.501 264.113,103.793 258.227,103.974 257.195 C 104.576 253.770,104.404 246.488,103.713 246.139 C 102.583 245.567,95.331 244.963,92.120 245.174 C 86.603 245.535,84.232 245.816,83.797 246.161 C 83.469 246.422,83.374 250.762,83.370 265.780 C 83.365 285.790,83.395 285.264,81.952 290.340 C 81.358 292.430,78.695 295.145,76.723 295.672 C 75.942 295.881,75.224 296.180,75.127 296.336 C 74.830 296.816,71.617 297.100,70.888 296.710 C 70.023 296.247,67.462 292.317,67.590 291.649 C 67.661 291.280,68.169 291.127,69.425 291.096 C 70.757 291.063,71.463 290.830,72.458 290.097 C 73.172 289.571,73.805 289.111,73.865 289.074 C 73.925 289.037,74.196 288.044,74.466 286.866 C 74.737 285.689,75.106 284.118,75.286 283.376 C 75.795 281.282,76.293 263.599,76.284 247.932 C 76.265 215.464,75.829 211.978,71.561 210.212 L 70.717 209.863 71.561 209.607 C 72.682 209.266,85.874 209.249,87.595 209.586 M155.502 209.545 C 156.205 209.993,155.381 215.135,154.355 216.703 L 153.486 218.030 152.936 217.005 C 152.634 216.441,152.011 215.783,151.552 215.543 C 151.093 215.303,150.104 214.792,149.355 214.407 C 147.677 213.547,141.124 212.777,140.108 213.321 C 138.737 214.054,138.453 216.468,138.200 229.567 L 137.961 241.918 138.760 242.478 C 140.009 243.353,146.631 242.995,147.662 241.998 C 147.839 241.827,148.256 241.688,148.590 241.688 C 148.923 241.688,149.782 241.159,150.497 240.512 C 151.213 239.866,151.897 239.436,152.017 239.556 C 152.382 239.921,152.270 249.728,151.899 249.958 C 151.713 250.073,151.561 249.962,151.561 249.712 C 151.561 249.044,148.866 247.089,147.945 247.089 C 147.508 247.089,146.606 246.861,145.939 246.582 C 144.043 245.790,139.591 245.894,138.734 246.751 C 137.378 248.107,138.190 281.717,139.607 282.894 C 140.325 283.489,146.776 283.160,147.848 282.473 C 148.312 282.176,149.235 281.837,149.899 281.721 C 151.043 281.521,152.445 280.377,153.124 279.087 C 154.113 277.210,156.173 283.288,155.481 286.044 L 155.261 286.920 140.930 286.920 L 126.599 286.920 126.943 286.015 C 127.132 285.518,127.660 284.737,128.116 284.281 C 128.572 283.825,128.945 283.313,128.945 283.142 C 128.945 282.972,129.252 282.159,129.627 281.336 C 131.358 277.535,131.440 216.208,129.715 215.065 C 129.538 214.948,129.216 214.336,129.000 213.704 C 128.784 213.073,127.920 211.907,127.079 211.113 C 125.647 209.760,125.599 209.660,126.320 209.522 C 127.676 209.262,155.090 209.283,155.502 209.545 M248.270 209.594 C 249.199 209.807,249.223 209.846,248.561 210.072 C 245.712 211.040,244.096 214.504,243.653 220.591 C 243.089 228.364,243.437 281.961,244.057 282.708 C 244.950 283.784,254.127 283.245,255.730 282.022 C 256.751 281.244,256.905 280.960,256.714 280.212 C 256.451 279.182,256.011 275.879,255.562 271.561 C 255.388 269.890,255.059 267.840,254.832 267.004 C 253.923 263.671,254.032 253.489,255.001 251.188 C 255.476 250.058,255.865 248.961,255.865 248.750 C 255.865 248.282,256.815 247.165,259.155 244.882 C 261.123 242.962,262.693 242.684,263.157 244.172 C 263.360 244.822,264.484 246.344,265.832 247.792 C 266.105 248.086,266.329 248.495,266.329 248.701 C 266.329 248.907,266.597 249.274,266.925 249.517 C 268.442 250.639,268.500 252.489,267.019 252.489 C 264.802 252.489,261.266 254.953,261.266 256.498 C 261.266 256.818,261.111 257.235,260.921 257.425 C 260.255 258.091,260.149 261.989,260.736 264.234 C 261.042 265.402,261.439 268.414,261.618 270.926 C 261.798 273.439,262.077 275.749,262.238 276.060 C 263.037 277.598,263.591 284.249,263.078 286.160 L 262.875 286.920 247.387 286.920 L 231.899 286.920 231.899 286.157 C 231.899 285.738,232.203 285.205,232.574 284.973 C 232.945 284.741,233.249 284.345,233.249 284.093 C 233.249 283.841,233.559 283.242,233.937 282.760 C 234.693 281.800,235.267 278.027,235.272 273.998 C 235.273 272.732,235.501 271.166,235.781 270.496 C 236.520 268.726,236.520 224.754,235.781 223.460 C 235.515 222.996,235.290 221.705,235.279 220.591 C 235.231 215.383,233.999 212.253,231.268 210.404 L 230.182 209.668 231.125 209.526 C 232.700 209.289,247.187 209.346,248.270 209.594 M290.743 209.573 C 291.295 209.790,291.266 209.866,290.467 210.294 C 287.752 211.747,286.939 214.765,286.923 223.460 C 286.916 227.400,286.765 229.514,286.410 230.687 C 285.786 232.742,285.677 260.512,286.284 262.785 C 286.482 263.527,286.845 266.338,287.092 269.030 C 287.546 274.002,287.767 275.105,288.306 275.105 C 288.472 275.105,288.608 275.414,288.608 275.791 C 288.608 277.445,289.532 278.812,291.965 280.758 C 293.550 282.026,300.436 282.149,302.447 280.945 C 303.097 280.556,303.973 280.135,304.394 280.010 C 304.816 279.884,305.614 279.367,306.169 278.861 L 307.177 277.940 307.364 270.193 C 307.725 255.253,307.739 246.787,307.425 231.392 L 307.109 215.865 306.269 214.177 C 305.285 212.201,304.216 210.886,303.087 210.263 L 302.278 209.817 303.291 209.590 C 304.738 209.265,318.685 209.276,319.494 209.603 C 320.127 209.859,320.111 209.902,319.241 210.308 C 318.730 210.546,318.312 210.848,318.312 210.979 C 318.312 211.109,317.909 211.619,317.417 212.111 C 315.566 213.962,315.232 219.537,315.065 251.425 L 314.928 277.534 315.785 279.442 C 316.618 281.297,317.027 281.683,319.810 283.241 C 320.896 283.849,320.834 283.900,318.420 284.385 C 317.829 284.503,317.175 284.807,316.966 285.059 C 316.757 285.311,315.949 285.621,315.170 285.748 C 314.392 285.875,313.300 286.254,312.743 286.590 C 310.147 288.156,307.801 287.870,307.215 285.915 C 306.777 284.452,305.657 284.043,304.828 285.042 C 304.607 285.308,303.943 285.627,303.352 285.749 C 302.762 285.872,301.747 286.289,301.097 286.676 C 299.065 287.885,289.294 287.774,287.426 286.520 C 284.370 284.470,281.865 281.629,281.379 279.662 C 281.242 279.105,280.900 278.396,280.621 278.086 C 280.260 277.685,280.017 276.165,279.785 272.854 C 279.606 270.286,279.323 267.502,279.157 266.667 C 278.990 265.831,278.762 257.477,278.649 248.101 C 278.262 215.909,277.696 211.353,273.924 210.058 C 273.335 209.856,273.378 209.797,274.262 209.594 C 275.619 209.284,289.962 209.265,290.743 209.573 M345.992 209.615 C 346.827 209.775,348.194 210.135,349.030 210.415 C 349.865 210.695,350.946 211.008,351.431 211.111 C 352.975 211.438,356.901 215.624,358.269 218.403 L 359.494 220.888 359.494 225.892 C 359.494 231.843,358.971 233.173,355.180 236.875 C 352.660 239.335,352.592 240.345,354.871 241.435 C 356.282 242.109,361.181 246.864,361.181 247.559 C 361.181 247.812,361.409 248.207,361.686 248.438 C 362.531 249.139,364.167 252.879,364.530 254.938 C 364.718 256.006,365.067 257.221,365.305 257.638 C 365.899 258.677,365.892 267.545,365.297 268.606 C 365.063 269.023,364.712 270.232,364.516 271.292 C 364.320 272.351,363.869 273.588,363.514 274.039 C 363.160 274.490,362.869 275.121,362.869 275.442 C 362.869 275.763,362.414 276.599,361.857 277.300 C 361.300 278.000,360.844 278.678,360.844 278.805 C 360.844 279.203,357.352 282.532,356.934 282.532 C 356.717 282.532,356.330 282.784,356.075 283.093 C 355.820 283.401,355.004 283.945,354.262 284.300 C 353.519 284.655,352.532 285.160,352.068 285.421 C 351.603 285.683,350.768 285.905,350.211 285.914 C 349.654 285.923,348.211 286.148,347.004 286.414 C 344.925 286.871,329.626 287.136,330.717 286.696 C 330.949 286.603,331.139 286.232,331.139 285.872 C 331.139 285.512,331.508 284.651,331.958 283.959 C 334.073 280.707,334.556 272.762,334.439 243.207 C 334.356 222.043,334.288 219.449,333.786 218.344 C 333.478 217.665,333.052 216.272,332.839 215.248 C 332.626 214.223,332.233 213.203,331.965 212.980 C 331.696 212.758,331.477 212.373,331.477 212.125 C 331.477 211.877,330.947 211.252,330.299 210.735 C 329.295 209.934,329.208 209.761,329.709 209.563 C 330.558 209.226,344.195 209.270,345.992 209.615 M203.207 210.144 C 202.371 210.383,201.361 210.591,200.963 210.606 C 198.569 210.695,191.471 215.764,189.416 218.852 C 188.925 219.589,188.256 220.586,187.930 221.067 C 187.604 221.547,187.015 222.624,186.621 223.460 C 186.228 224.295,185.750 225.174,185.560 225.412 C 185.070 226.028,183.683 230.016,183.129 232.405 C 182.871 233.519,182.390 235.418,182.060 236.624 C 180.969 240.615,181.201 259.467,182.390 263.413 C 182.886 265.059,183.292 266.881,183.293 267.464 C 183.295 268.047,183.594 268.977,183.960 269.531 C 184.325 270.085,184.721 271.188,184.840 271.982 C 184.959 272.776,185.187 273.506,185.346 273.605 C 185.505 273.703,185.948 274.423,186.330 275.204 C 190.570 283.867,196.911 288.361,204.895 288.361 C 210.399 288.361,216.563 285.766,220.496 281.794 C 222.111 280.162,224.430 276.683,224.458 275.850 C 224.471 275.455,221.825 269.591,221.076 268.354 C 220.908 268.076,220.555 267.373,220.293 266.792 C 219.688 265.453,219.128 265.101,218.851 265.886 C 216.867 271.515,214.100 276.921,212.529 278.236 C 206.505 283.279,199.253 282.571,196.215 276.645 C 195.923 276.077,195.403 275.250,195.058 274.807 C 194.713 274.364,194.430 273.676,194.430 273.279 C 194.430 272.881,194.198 272.223,193.913 271.817 C 193.629 271.411,193.102 269.927,192.741 268.518 C 192.381 267.110,191.993 265.806,191.878 265.621 C 190.402 263.232,190.507 237.546,192.004 234.709 C 192.183 234.370,192.516 233.181,192.744 232.068 C 192.972 230.954,193.423 229.511,193.746 228.861 C 194.070 228.211,194.439 227.246,194.566 226.717 C 194.694 226.188,195.075 225.353,195.413 224.861 C 195.751 224.369,196.466 223.277,197.002 222.435 C 198.588 219.938,201.468 217.572,203.772 216.873 C 210.649 214.786,216.712 219.523,216.707 226.980 C 216.705 229.069,216.541 230.357,216.188 231.033 C 215.466 232.418,215.773 233.125,216.790 232.416 C 217.209 232.123,218.768 231.080,220.253 230.097 C 221.738 229.114,223.111 227.995,223.304 227.609 C 223.497 227.223,223.821 226.701,224.025 226.450 C 225.883 224.148,223.102 217.213,219.003 213.930 C 214.458 210.290,208.055 208.755,203.207 210.144 M214.852 211.952 C 223.442 216.571,226.654 225.076,221.216 228.801 C 220.315 229.418,219.234 230.177,218.813 230.489 C 217.380 231.549,217.262 231.298,217.238 227.158 C 217.219 223.846,217.114 223.112,216.541 222.264 C 216.171 221.715,215.695 220.873,215.484 220.392 C 214.370 217.859,208.662 214.978,205.981 215.598 C 203.666 216.132,201.435 217.018,200.775 217.664 C 200.458 217.974,199.509 218.828,198.665 219.562 C 197.821 220.296,197.131 221.093,197.131 221.334 C 197.131 221.575,196.976 221.772,196.788 221.772 C 196.599 221.772,196.181 222.342,195.860 223.038 C 195.538 223.734,195.085 224.425,194.854 224.573 C 194.622 224.721,194.336 225.453,194.216 226.199 C 194.097 226.945,193.793 227.762,193.541 228.014 C 192.946 228.609,192.405 230.048,192.405 231.034 C 192.405 231.462,192.115 232.478,191.761 233.290 C 191.403 234.112,190.946 236.389,190.732 238.418 C 190.520 240.426,190.202 242.448,190.026 242.913 C 189.617 243.988,189.603 256.394,190.010 257.154 C 190.177 257.468,190.487 259.447,190.697 261.552 C 190.908 263.657,191.314 266.011,191.600 266.783 C 191.885 267.554,192.260 268.859,192.432 269.681 C 192.604 270.504,192.949 271.491,193.199 271.875 C 193.449 272.260,193.844 273.158,194.078 273.872 C 194.686 275.725,195.681 277.216,197.828 279.495 C 199.691 281.471,199.794 281.525,203.420 282.418 C 204.520 282.689,209.331 281.511,210.396 280.710 C 212.812 278.895,215.696 275.674,215.696 274.792 C 215.696 274.465,215.991 273.930,216.352 273.604 C 216.713 273.277,217.112 272.532,217.238 271.948 C 217.365 271.364,217.744 270.354,218.081 269.705 C 218.417 269.055,218.832 267.992,219.002 267.342 L 219.312 266.160 219.705 267.128 C 219.921 267.661,220.399 268.479,220.766 268.946 C 221.134 269.413,221.435 270.134,221.435 270.549 C 221.435 270.963,221.708 271.664,222.043 272.106 C 223.534 274.079,223.809 275.627,222.950 277.206 C 222.518 278.000,221.896 279.143,221.568 279.747 C 221.240 280.350,220.790 280.844,220.567 280.844 C 220.344 280.844,219.913 281.224,219.609 281.688 C 219.305 282.152,218.827 282.532,218.547 282.532 C 218.267 282.532,217.948 282.766,217.838 283.052 C 217.728 283.339,217.049 283.873,216.330 284.241 C 215.610 284.608,215.021 285.039,215.021 285.199 C 215.021 285.359,214.300 285.669,213.418 285.889 C 212.536 286.109,211.435 286.545,210.970 286.857 C 209.783 287.658,199.515 287.670,198.579 286.872 C 198.247 286.588,197.461 286.152,196.834 285.904 C 196.207 285.655,195.355 285.136,194.941 284.751 C 194.528 284.366,193.791 283.747,193.303 283.376 C 191.611 282.087,190.092 280.520,189.876 279.840 C 189.757 279.464,189.509 279.156,189.325 279.156 C 189.142 279.156,188.689 278.473,188.320 277.637 C 187.950 276.802,187.515 276.118,187.353 276.118 C 187.191 276.118,186.959 275.670,186.839 275.121 C 186.719 274.573,186.339 273.768,185.996 273.331 C 185.653 272.895,185.263 271.938,185.130 271.206 C 184.997 270.473,184.610 269.322,184.272 268.647 C 183.933 267.973,183.556 266.378,183.434 265.103 C 183.312 263.828,182.965 262.405,182.661 261.941 C 181.819 260.652,181.835 238.875,182.680 236.624 C 182.994 235.789,183.350 234.350,183.472 233.426 C 183.593 232.502,183.961 231.211,184.288 230.556 C 184.615 229.902,184.974 228.779,185.085 228.059 C 185.196 227.340,185.520 226.495,185.804 226.181 C 186.088 225.867,186.499 225.088,186.716 224.451 C 186.934 223.813,187.392 222.929,187.733 222.486 C 188.075 222.043,188.354 221.479,188.354 221.232 C 188.354 220.985,188.658 220.621,189.030 220.422 C 189.401 220.223,189.707 219.876,189.711 219.651 C 189.729 218.401,195.950 213.113,198.143 212.483 C 198.608 212.350,199.232 212.027,199.531 211.765 C 201.343 210.178,211.790 210.306,214.852 211.952 M342.954 215.453 L 342.110 215.885 342.020 226.137 C 341.913 238.384,342.210 239.324,345.476 237.082 C 345.842 236.830,346.380 236.624,346.670 236.624 C 349.044 236.624,352.068 230.758,352.068 226.151 C 352.068 219.764,346.745 213.516,342.954 215.453 M346.262 216.574 C 353.869 220.172,353.026 234.441,345.084 236.515 C 342.210 237.265,342.278 237.499,342.278 226.982 C 342.278 217.471,342.394 216.148,343.245 215.921 C 344.243 215.656,344.390 215.688,346.262 216.574 M342.285 244.212 C 341.826 244.765,341.973 278.655,342.441 280.070 C 342.900 281.460,345.937 281.761,347.459 280.567 C 347.673 280.399,348.291 280.156,348.832 280.026 C 350.657 279.589,355.443 275.183,355.443 273.941 C 355.443 273.703,355.733 273.140,356.087 272.690 C 356.441 272.240,356.841 271.118,356.975 270.198 C 357.109 269.277,357.438 267.968,357.705 267.289 C 358.553 265.136,357.394 254.398,356.220 253.533 C 356.071 253.423,355.682 252.756,355.356 252.050 C 352.971 246.895,344.349 241.724,342.285 244.212 M348.106 245.387 C 358.526 251.273,360.775 268.567,352.219 277.004 C 349.511 279.675,344.616 281.452,343.734 280.084 C 342.851 278.715,341.628 246.908,342.382 244.942 C 342.763 243.949,346.008 244.201,348.106 245.387 " stroke="none" fill="#9c9c9c" fill-rule="evenodd"></path><path id="path4" d="M135.798 35.429 C 134.279 35.794,130.962 37.153,129.958 37.822 C 129.494 38.131,128.697 38.637,128.187 38.946 C 127.678 39.254,127.040 40.036,126.770 40.682 C 126.500 41.328,126.132 41.857,125.951 41.857 C 125.771 41.857,125.158 43.305,124.588 45.074 L 123.552 48.292 123.526 106.954 C 123.512 139.218,123.603 166.061,123.729 166.605 C 123.945 167.539,125.166 170.185,126.600 172.827 C 127.159 173.857,127.908 174.634,129.946 176.298 C 130.217 176.520,131.281 177.120,132.308 177.632 L 134.177 178.563 195.949 178.561 L 257.722 178.559 259.495 177.733 C 263.243 175.988,264.652 174.528,266.994 169.958 C 268.730 166.572,268.723 166.855,268.619 105.148 C 268.528 50.582,268.493 47.689,267.909 46.245 C 267.572 45.409,267.168 44.221,267.011 43.604 C 266.855 42.987,266.461 42.189,266.136 41.830 C 265.811 41.471,265.378 40.841,265.173 40.430 C 264.968 40.019,264.271 39.331,263.624 38.902 C 262.977 38.472,262.215 37.928,261.930 37.692 C 261.646 37.457,260.279 36.816,258.892 36.269 L 256.371 35.274 196.624 35.222 C 163.764 35.193,136.392 35.287,135.798 35.429 M257.046 36.538 C 257.603 36.862,258.447 37.128,258.922 37.129 C 259.396 37.130,260.299 37.511,260.928 37.975 C 261.557 38.439,262.255 38.819,262.478 38.819 C 262.858 38.819,263.867 39.906,265.519 42.097 C 265.910 42.615,266.427 43.873,266.670 44.895 C 266.912 45.916,267.315 47.240,267.564 47.837 C 267.937 48.732,268.017 59.172,268.017 106.990 L 268.017 165.057 267.116 167.676 C 266.620 169.117,265.961 170.675,265.650 171.139 C 265.339 171.603,264.660 172.629,264.142 173.418 C 263.623 174.207,263.080 174.852,262.934 174.852 C 262.787 174.852,262.238 175.211,261.714 175.650 C 261.189 176.089,259.696 176.811,258.397 177.254 L 256.034 178.059 195.781 178.059 L 135.527 178.059 133.507 177.290 C 130.537 176.161,127.302 173.756,127.268 172.652 C 127.262 172.463,126.910 171.780,126.485 171.133 C 126.061 170.487,125.339 168.895,124.882 167.595 L 124.051 165.232 124.051 107.173 C 124.051 53.180,124.091 49.008,124.629 47.595 C 124.947 46.759,125.372 45.322,125.575 44.400 C 125.777 43.478,126.173 42.490,126.455 42.206 C 126.737 41.921,127.257 41.197,127.610 40.598 C 128.429 39.206,131.002 37.787,135.021 36.511 C 138.187 35.505,255.315 35.531,257.046 36.538 M192.847 69.283 C 192.697 69.515,192.498 77.451,192.405 86.920 L 192.236 104.135 174.965 104.304 C 165.465 104.397,157.601 104.564,157.489 104.676 C 157.234 104.932,157.234 145.782,157.490 146.195 C 157.865 146.801,199.055 146.574,199.289 145.964 C 199.401 145.670,199.494 137.878,199.494 128.647 C 199.494 116.044,199.595 111.764,199.899 111.460 C 200.203 111.156,204.556 111.055,217.415 111.055 C 232.707 111.055,234.549 110.998,234.732 110.521 C 235.103 109.553,234.965 70.219,234.587 69.514 C 234.147 68.691,193.376 68.466,192.847 69.283 M234.180 90.042 L 234.093 110.549 216.709 110.717 L 199.325 110.886 199.237 128.349 L 199.150 145.811 198.394 145.995 C 197.978 146.096,188.675 146.136,177.722 146.085 L 157.806 145.992 157.772 125.907 C 157.753 114.861,157.805 105.544,157.888 105.204 C 158.032 104.611,158.768 104.591,175.201 104.735 C 187.035 104.838,192.475 104.773,192.722 104.527 C 192.965 104.284,193.080 98.670,193.080 87.077 C 193.080 77.677,193.181 69.885,193.305 69.761 C 193.429 69.637,202.696 69.536,213.899 69.536 L 234.267 69.536 234.180 90.042 M199.747 75.639 C 198.982 76.085,198.818 104.045,199.578 104.537 C 200.499 105.133,227.640 104.684,228.101 104.065 C 228.877 103.026,228.694 76.546,227.906 75.833 C 227.170 75.167,200.868 74.986,199.747 75.639 M227.679 90.127 L 227.679 104.135 213.671 104.135 L 199.662 104.135 199.574 90.465 C 199.526 82.946,199.559 76.602,199.649 76.368 C 199.778 76.032,202.773 75.961,213.746 76.030 L 227.679 76.118 227.679 90.127 M206.037 81.946 C 205.499 82.300,205.195 97.036,205.711 97.741 C 206.245 98.472,220.688 98.648,221.550 97.933 C 222.370 97.254,222.397 83.035,221.579 82.218 C 221.011 81.650,206.863 81.402,206.037 81.946 M221.357 90.042 L 221.266 97.722 214.177 97.722 C 210.278 97.722,206.823 97.612,206.498 97.479 C 205.891 97.230,205.546 83.174,206.132 82.588 C 206.256 82.464,209.753 82.363,213.902 82.363 L 221.447 82.363 221.357 90.042 M173.952 110.716 C 168.536 110.809,164.008 110.984,163.890 111.103 C 163.493 111.501,163.697 139.152,164.101 139.638 C 164.615 140.258,192.057 140.298,192.675 139.679 C 192.977 139.377,193.080 135.690,193.080 125.171 L 193.080 111.068 192.321 110.914 C 190.882 110.623,183.774 110.546,173.952 110.716 M191.818 111.363 C 192.377 111.391,192.407 112.231,192.324 125.485 L 192.236 139.578 178.605 139.666 C 168.823 139.730,164.843 139.646,164.512 139.372 C 163.978 138.929,163.907 132.975,164.273 119.557 L 164.496 111.410 169.252 111.317 C 173.282 111.238,189.966 111.272,191.818 111.363 M170.499 117.595 C 170.229 117.921,170.141 120.369,170.205 125.781 L 170.295 133.502 178.017 133.593 C 183.429 133.657,185.877 133.569,186.202 133.298 C 186.832 132.776,186.887 118.161,186.262 117.536 C 185.637 116.911,171.021 116.966,170.499 117.595 M185.914 125.485 L 185.823 133.165 178.608 133.256 C 173.571 133.319,171.253 133.231,170.929 132.961 C 170.436 132.552,170.211 118.510,170.689 118.031 C 170.813 117.907,174.309 117.806,178.459 117.806 L 186.004 117.806 185.914 125.485 M25.660 209.107 C 25.053 209.838,25.308 220.105,25.952 220.881 C 26.518 221.562,27.172 221.144,27.484 219.902 C 27.598 219.445,27.842 219.072,28.026 219.072 C 28.209 219.072,28.675 218.708,29.062 218.263 C 29.565 217.685,30.269 217.391,31.530 217.234 C 32.501 217.112,33.720 216.793,34.239 216.523 C 35.009 216.124,39.737 215.783,39.863 216.118 C 40.642 218.180,40.847 254.313,40.171 270.380 C 39.694 281.730,39.454 282.732,36.571 285.415 C 33.832 287.963,34.299 288.101,45.642 288.101 C 53.362 288.101,54.386 288.038,54.896 287.527 C 55.528 286.895,55.065 285.907,54.136 285.907 C 53.880 285.907,53.671 285.754,53.671 285.567 C 53.671 285.381,53.289 284.895,52.822 284.489 C 52.355 284.083,51.595 282.927,51.134 281.919 L 50.295 280.087 50.295 248.060 L 50.295 216.034 52.680 216.034 C 53.992 216.034,55.350 216.186,55.698 216.372 C 56.046 216.558,57.301 216.914,58.488 217.163 C 60.675 217.621,62.785 219.006,62.785 219.982 C 62.785 220.735,63.773 220.886,64.485 220.242 C 65.240 219.559,65.496 210.565,64.798 209.261 C 64.322 208.371,26.394 208.222,25.660 209.107 M69.992 208.943 C 68.590 209.509,69.223 210.963,70.877 210.974 C 71.959 210.982,73.466 213.101,74.039 215.423 C 75.271 220.412,75.720 268.362,74.619 277.300 C 74.436 278.785,74.086 281.698,73.841 283.774 C 73.353 287.906,72.991 288.621,70.947 289.475 C 70.120 289.820,69.633 289.853,69.153 289.596 C 66.833 288.354,64.732 290.533,66.409 292.442 C 66.758 292.839,67.222 293.582,67.439 294.093 C 67.656 294.603,67.989 295.021,68.178 295.021 C 68.368 295.021,68.523 295.228,68.523 295.482 C 68.523 297.614,74.485 298.794,76.663 297.093 C 77.106 296.747,77.841 296.347,78.297 296.204 C 79.417 295.853,82.363 292.830,82.363 292.032 C 82.363 291.679,82.582 291.209,82.851 290.986 C 83.820 290.181,84.018 286.760,84.243 266.948 L 84.471 246.808 85.189 246.615 C 86.339 246.307,102.063 246.395,102.565 246.712 C 103.445 247.270,102.353 279.640,101.392 281.481 C 101.139 281.966,100.931 282.708,100.930 283.130 C 100.929 283.619,100.623 284.036,100.084 284.281 C 99.620 284.492,99.241 284.869,99.241 285.117 C 99.241 285.366,99.033 285.570,98.780 285.570 C 98.526 285.570,97.910 285.891,97.411 286.284 L 96.502 286.999 97.281 287.550 C 98.538 288.440,116.842 288.375,117.710 287.478 C 118.289 286.878,118.286 286.839,117.637 286.465 C 116.332 285.713,113.163 282.216,112.939 281.282 C 112.585 279.803,112.288 233.771,112.567 223.730 L 112.818 214.718 114.046 213.042 C 114.885 211.898,115.670 211.236,116.522 210.952 C 118.053 210.442,118.352 209.805,117.379 209.123 C 116.168 208.275,98.377 208.378,97.256 209.240 L 96.452 209.858 97.246 210.414 C 97.683 210.720,98.246 210.970,98.498 210.970 C 99.267 210.970,100.818 212.780,101.555 214.537 C 102.414 216.584,103.259 237.948,102.543 239.519 C 102.013 240.683,101.655 240.726,93.273 240.610 L 85.813 240.506 85.112 239.662 C 84.270 238.650,83.998 225.143,84.791 223.691 C 85.013 223.284,85.285 220.838,85.399 218.228 L 85.605 213.502 86.691 212.425 C 87.288 211.832,88.300 211.158,88.940 210.926 C 90.394 210.401,90.651 209.790,89.700 209.123 C 88.867 208.540,71.387 208.380,69.992 208.943 M124.184 209.243 L 123.399 209.879 124.569 210.572 C 126.206 211.541,127.912 213.346,128.139 214.346 C 128.244 214.810,128.658 216.177,129.059 217.384 C 129.919 219.968,130.193 273.502,129.367 277.468 C 128.402 282.106,127.076 284.398,124.233 286.345 C 121.920 287.929,124.726 288.253,140.855 288.262 C 158.229 288.272,158.379 288.236,156.793 284.440 C 156.515 283.774,156.286 282.578,156.285 281.783 C 156.282 279.581,155.721 278.016,154.452 276.671 L 153.301 275.450 152.714 277.219 C 151.947 279.527,150.692 280.686,148.657 280.965 C 147.785 281.085,146.633 281.401,146.096 281.669 C 144.534 282.449,140.482 282.742,140.233 282.094 C 139.973 281.416,139.391 267.093,139.199 256.642 L 139.049 248.475 139.800 248.073 C 142.780 246.478,149.499 248.216,150.886 250.939 C 152.160 253.441,152.932 251.969,153.164 246.599 C 153.383 241.542,153.063 238.237,152.260 237.245 L 151.662 236.507 151.065 237.831 C 150.182 239.793,148.981 240.591,146.293 241.004 C 145.013 241.200,143.250 241.538,142.374 241.754 C 140.835 242.134,140.751 242.115,139.904 241.201 L 139.026 240.254 139.197 234.979 C 139.291 232.078,139.515 226.591,139.695 222.785 C 139.876 218.979,140.037 215.523,140.054 215.105 C 140.097 214.024,145.437 213.963,147.511 215.021 C 148.238 215.392,149.149 215.696,149.534 215.696 C 150.384 215.696,152.569 217.803,152.586 218.639 C 152.592 218.970,152.793 219.593,153.032 220.023 L 153.466 220.806 154.708 219.431 C 155.391 218.676,155.959 217.868,155.970 217.636 C 156.069 215.638,156.648 212.241,157.078 211.139 C 158.091 208.540,158.530 208.608,140.591 208.608 C 125.794 208.608,124.928 208.641,124.184 209.243 M229.257 209.144 C 228.397 209.747,228.685 210.424,229.975 210.834 C 230.835 211.107,232.574 212.784,232.574 213.340 C 232.574 213.557,232.914 214.214,233.330 214.798 C 234.159 215.962,234.503 219.885,234.568 228.925 C 234.586 231.382,234.743 233.298,234.937 233.418 C 235.152 233.551,235.274 238.365,235.274 246.751 C 235.274 255.137,235.152 259.951,234.937 260.084 C 234.744 260.204,234.589 262.055,234.576 264.408 C 234.524 273.653,234.096 280.094,233.491 280.763 C 233.177 281.110,232.819 281.898,232.696 282.513 C 232.491 283.535,231.263 284.973,229.367 286.408 C 228.360 287.171,229.393 287.830,232.016 288.098 C 236.911 288.599,263.233 288.136,263.830 287.539 C 264.583 286.786,263.934 274.575,263.053 272.911 C 262.624 272.102,262.487 270.377,262.366 264.304 L 262.214 256.709 263.279 255.527 C 264.296 254.398,264.466 254.339,267.108 254.177 L 269.873 254.008 269.980 252.907 C 270.086 251.797,269.470 250.700,267.764 248.965 C 267.346 248.540,267.004 248.014,267.004 247.795 C 267.004 247.576,266.624 246.987,266.160 246.487 C 265.696 245.986,265.316 245.380,265.316 245.141 C 265.316 244.901,265.103 244.622,264.841 244.522 C 264.580 244.422,264.183 243.900,263.961 243.362 C 262.778 240.508,256.288 243.980,255.016 248.148 C 254.882 248.587,254.571 249.175,254.325 249.457 C 253.498 250.404,252.242 261.227,252.910 261.650 C 253.097 261.768,253.381 264.047,253.541 266.713 C 253.724 269.746,254.019 271.940,254.329 272.574 C 254.964 273.867,255.524 280.432,255.034 280.820 C 254.841 280.972,254.228 281.181,253.671 281.284 C 250.627 281.846,246.146 282.527,245.480 282.529 L 244.716 282.532 244.805 249.439 C 244.871 225.008,244.996 216.284,245.282 216.106 C 245.494 215.973,245.838 215.233,246.046 214.461 C 246.515 212.716,247.956 211.130,249.350 210.824 C 250.690 210.530,250.989 209.790,250.037 209.123 C 248.917 208.338,230.381 208.357,229.257 209.144 M272.496 209.258 C 271.656 209.959,271.873 210.319,273.513 210.943 C 274.018 211.134,274.430 211.504,274.430 211.765 C 274.430 212.025,274.742 212.447,275.124 212.701 C 275.701 213.087,275.888 213.788,276.242 216.892 C 276.475 218.942,276.798 220.832,276.959 221.093 C 277.120 221.353,277.362 232.663,277.495 246.226 C 277.705 267.526,277.813 271.139,278.287 272.743 C 278.589 273.764,278.969 275.543,279.131 276.696 C 279.306 277.947,279.712 279.158,280.135 279.696 C 280.525 280.192,280.844 280.868,280.844 281.198 C 280.844 283.167,286.451 287.782,289.433 288.267 C 290.372 288.420,291.564 288.739,292.084 288.976 C 292.814 289.308,293.276 289.318,294.110 289.021 C 294.704 288.808,296.253 288.538,297.553 288.419 C 300.359 288.163,302.447 287.679,302.447 287.284 C 302.447 287.128,303.122 286.830,303.946 286.623 C 304.771 286.415,305.562 286.057,305.704 285.826 C 305.864 285.567,306.165 286.111,306.497 287.261 C 307.076 289.271,308.816 290.051,310.023 288.844 C 310.287 288.580,311.143 288.261,311.925 288.136 C 312.707 288.011,313.742 287.633,314.226 287.295 C 314.710 286.957,315.694 286.589,316.413 286.477 C 317.132 286.365,317.968 286.053,318.270 285.784 C 318.572 285.515,319.458 285.125,320.239 284.917 C 321.990 284.451,322.621 282.532,321.023 282.532 C 320.223 282.532,317.312 280.338,316.949 279.462 C 316.641 278.719,316.577 270.882,316.679 246.669 L 316.813 214.852 318.153 213.118 C 318.890 212.163,319.987 211.141,320.591 210.845 C 321.827 210.238,322.006 209.477,321.035 208.957 C 319.881 208.339,302.418 208.497,301.510 209.133 C 300.485 209.851,300.566 210.245,301.857 210.810 C 303.728 211.629,304.699 212.964,305.534 215.867 L 306.310 218.565 306.418 247.998 L 306.526 277.430 305.752 277.836 C 305.327 278.059,304.867 278.430,304.730 278.661 C 304.594 278.891,303.910 279.185,303.211 279.315 C 302.513 279.444,301.467 279.841,300.888 280.197 C 299.323 281.159,294.043 281.139,293.165 280.169 C 292.829 279.797,292.365 279.494,292.135 279.494 C 291.501 279.494,289.729 276.468,289.465 274.937 C 289.337 274.194,289.039 273.283,288.802 272.911 C 288.566 272.540,288.272 271.697,288.150 271.038 C 287.806 269.184,287.611 235.958,287.878 224.810 L 288.117 214.852 289.195 213.301 C 289.787 212.448,290.914 211.326,291.698 210.807 L 293.123 209.864 292.347 209.236 C 291.159 208.274,273.652 208.294,272.496 209.258 M328.354 208.962 C 327.474 209.490,327.624 209.942,329.094 211.201 C 329.826 211.827,330.527 212.677,330.653 213.090 C 330.779 213.502,331.124 214.115,331.420 214.452 C 333.796 217.155,334.345 251.438,332.413 276.456 C 331.938 282.607,331.887 282.748,329.158 285.499 C 326.660 288.017,326.967 288.105,338.156 288.082 C 346.971 288.064,347.618 288.020,349.367 287.323 C 350.388 286.916,351.603 286.580,352.068 286.576 C 352.532 286.573,353.580 286.117,354.397 285.563 C 355.214 285.010,356.051 284.557,356.257 284.557 C 356.462 284.557,356.821 284.253,357.052 283.882 C 357.284 283.511,357.619 283.207,357.795 283.207 C 358.569 283.207,363.148 278.011,363.430 276.812 C 363.542 276.338,363.904 275.646,364.236 275.274 C 364.568 274.903,364.949 273.992,365.082 273.249 C 365.215 272.506,365.587 271.367,365.908 270.717 C 367.224 268.061,367.038 257.541,365.621 254.449 C 365.221 253.577,364.895 252.495,364.895 252.043 C 364.895 251.591,364.686 251.049,364.432 250.838 C 364.178 250.627,363.710 249.773,363.392 248.940 C 363.074 248.108,362.670 247.426,362.495 247.426 C 362.320 247.426,362.032 247.043,361.853 246.574 C 361.675 246.105,361.299 245.633,361.018 245.525 C 360.736 245.417,360.506 245.134,360.506 244.897 C 360.506 244.660,360.165 244.236,359.747 243.955 C 359.329 243.674,358.418 242.914,357.721 242.267 C 357.025 241.620,356.076 240.841,355.612 240.537 C 354.468 239.788,354.551 238.992,355.883 237.929 C 358.429 235.898,360.106 232.714,360.532 229.105 C 361.001 225.129,360.468 219.547,359.502 218.309 C 359.177 217.893,358.798 217.173,358.659 216.709 C 358.399 215.840,358.106 215.472,355.832 213.165 C 353.715 211.016,352.822 210.366,351.647 210.116 C 351.043 209.988,350.267 209.634,349.923 209.330 C 349.161 208.656,329.426 208.320,328.354 208.962 M64.355 209.424 C 65.085 209.704,64.890 218.317,64.135 219.128 C 63.674 219.624,63.502 219.556,62.202 218.359 C 61.417 217.637,60.460 217.046,60.075 217.046 C 59.690 217.046,58.937 216.819,58.400 216.542 C 56.617 215.620,51.072 215.113,50.376 215.808 C 49.461 216.724,49.470 280.035,50.386 281.873 C 50.998 283.101,52.549 285.093,53.957 286.459 L 54.750 287.228 53.951 287.428 C 52.900 287.692,36.237 287.490,35.958 287.210 C 35.839 287.091,36.415 286.331,37.237 285.522 C 39.676 283.122,40.132 281.540,40.503 274.182 C 40.679 270.698,40.925 266.329,41.051 264.473 C 41.913 251.731,41.127 216.651,39.961 215.791 C 39.131 215.179,34.996 215.518,32.417 216.409 C 31.402 216.760,30.337 217.046,30.050 217.046 C 29.460 217.046,26.681 219.621,26.639 220.208 C 26.624 220.418,26.403 220.135,26.148 219.578 C 25.605 218.392,25.461 209.949,25.975 209.435 C 26.319 209.090,63.459 209.080,64.355 209.424 M88.945 209.428 L 89.958 209.880 88.640 210.452 C 84.715 212.153,84.159 214.798,84.084 232.111 C 84.042 241.851,82.964 240.816,93.292 240.946 C 103.886 241.079,104.031 241.012,103.495 236.259 C 103.382 235.253,103.168 230.177,103.021 224.979 C 102.768 216.038,102.711 215.445,101.972 214.008 C 101.128 212.370,99.473 210.633,98.755 210.633 C 97.854 210.633,97.452 209.698,98.184 209.306 C 99.233 208.745,115.333 208.851,116.624 209.428 L 117.637 209.880 116.287 210.458 C 113.389 211.697,112.547 213.447,112.227 218.903 C 111.869 225.004,111.904 270.413,112.272 276.793 C 112.612 282.690,113.520 284.663,116.787 286.603 C 118.074 287.367,116.020 287.585,107.511 287.585 C 99.513 287.585,96.635 287.316,98.109 286.709 C 99.088 286.305,100.950 284.068,101.785 282.292 L 102.704 280.338 103.020 267.848 C 103.194 260.979,103.410 253.447,103.500 251.111 C 103.633 247.691,103.571 246.786,103.182 246.463 C 102.549 245.938,92.107 245.609,87.595 245.973 L 84.219 246.245 83.852 267.342 L 83.484 288.439 82.455 290.664 C 80.235 295.466,72.925 299.210,70.158 296.962 C 69.609 296.516,67.511 293.447,67.511 293.090 C 67.511 292.975,67.297 292.640,67.036 292.347 C 66.590 291.847,66.370 290.977,66.459 290.067 C 66.488 289.777,66.983 289.809,68.317 290.188 C 70.111 290.698,70.157 290.693,71.656 289.815 C 75.070 287.814,75.631 281.910,75.623 248.101 C 75.616 214.396,75.362 212.382,70.886 210.428 L 69.705 209.913 70.549 209.441 C 71.742 208.774,87.456 208.763,88.945 209.428 M156.088 209.331 C 156.722 209.619,156.862 209.852,156.644 210.259 C 156.484 210.557,156.254 211.561,156.132 212.489 C 155.421 217.908,153.929 220.516,152.925 218.092 C 151.670 215.063,141.868 212.189,139.964 214.292 C 138.834 215.541,138.004 241.358,139.072 242.033 C 141.415 243.512,150.661 240.953,151.402 238.620 C 151.651 237.836,152.091 237.785,152.369 238.509 C 152.731 239.453,152.587 250.261,152.205 250.802 C 151.895 251.241,151.822 251.243,151.653 250.817 C 150.712 248.437,148.363 247.394,143.460 247.178 C 137.977 246.937,138.335 246.242,138.527 256.748 C 138.830 273.329,139.400 282.044,140.221 282.624 C 140.749 282.998,146.167 282.530,147.173 282.024 C 147.637 281.791,148.549 281.486,149.198 281.347 C 150.612 281.044,152.220 279.767,152.865 278.435 C 153.123 277.904,153.440 277.468,153.570 277.468 C 155.470 277.468,157.332 286.899,155.527 287.382 C 154.536 287.648,126.308 287.648,125.316 287.382 C 124.512 287.167,124.266 286.582,124.979 286.582 C 125.765 286.582,128.138 283.388,129.118 281.013 L 130.092 278.650 130.110 248.439 L 130.127 218.228 129.149 215.600 C 128.233 213.139,126.479 210.633,125.671 210.633 C 124.881 210.633,124.492 209.691,125.129 209.320 C 126.015 208.805,154.956 208.815,156.088 209.331 M203.544 209.340 C 203.080 209.533,201.810 209.905,200.722 210.167 C 199.634 210.428,198.361 210.944,197.892 211.313 C 197.423 211.681,196.843 211.983,196.603 211.983 C 196.363 211.983,195.958 212.191,195.704 212.446 C 195.449 212.700,194.793 213.145,194.245 213.433 C 192.443 214.383,187.679 219.609,187.679 220.636 C 187.679 220.743,187.300 221.282,186.835 221.834 C 186.371 222.385,185.992 223.067,185.992 223.348 C 185.992 223.630,185.692 224.241,185.325 224.707 C 184.959 225.173,184.560 226.108,184.439 226.785 C 184.317 227.463,184.006 228.261,183.746 228.559 C 183.487 228.857,183.110 230.072,182.909 231.259 C 182.708 232.446,182.307 233.791,182.019 234.248 C 180.443 236.746,180.456 261.465,182.036 264.504 C 182.335 265.079,182.678 266.370,182.799 267.373 C 182.920 268.377,183.283 269.578,183.606 270.042 C 183.928 270.506,184.289 271.489,184.408 272.225 C 184.526 272.962,184.931 273.981,185.307 274.490 C 185.684 274.999,185.994 275.612,185.998 275.851 C 186.007 276.522,188.522 280.218,189.958 281.672 C 190.376 282.094,190.717 282.585,190.717 282.761 C 190.717 282.937,191.415 283.603,192.268 284.241 C 193.121 284.879,193.962 285.667,194.137 285.992 C 194.311 286.316,194.732 286.582,195.072 286.582 C 195.412 286.582,196.077 286.887,196.551 287.260 C 197.025 287.633,198.147 288.025,199.044 288.131 C 199.941 288.237,200.979 288.443,201.350 288.589 C 203.264 289.343,204.788 289.466,206.751 289.027 C 207.865 288.777,209.487 288.440,210.355 288.277 C 211.710 288.023,212.948 287.507,215.359 286.191 C 215.637 286.039,216.473 285.589,217.215 285.192 C 218.617 284.442,222.447 280.766,222.447 280.171 C 222.447 279.984,222.637 279.829,222.869 279.826 C 224.333 279.809,225.507 275.486,224.473 273.924 C 224.104 273.367,223.801 272.669,223.800 272.373 C 223.798 272.077,223.517 271.581,223.174 271.271 C 222.831 270.960,222.361 270.063,222.129 269.277 C 221.898 268.491,221.436 267.544,221.104 267.173 C 220.771 266.802,220.396 266.156,220.269 265.738 C 219.941 264.656,218.805 264.757,218.361 265.907 C 218.164 266.418,217.712 267.397,217.356 268.084 C 217.000 268.770,216.709 269.690,216.709 270.128 C 216.709 270.566,216.329 271.438,215.865 272.068 C 215.401 272.697,215.018 273.372,215.015 273.568 C 214.992 274.873,211.956 278.337,210.087 279.189 C 209.322 279.538,208.506 280.053,208.273 280.334 C 207.566 281.186,201.143 281.059,200.345 280.177 C 200.014 279.811,199.469 279.424,199.136 279.319 C 198.581 279.142,197.808 278.136,196.446 275.816 C 196.162 275.332,195.683 274.557,195.382 274.093 C 195.081 273.629,194.726 272.717,194.595 272.068 C 194.463 271.418,194.158 270.658,193.916 270.380 C 193.675 270.101,193.370 269.114,193.239 268.186 C 193.108 267.257,192.677 265.738,192.281 264.810 C 191.166 262.195,191.166 238.393,192.282 235.781 C 192.678 234.852,193.105 233.230,193.231 232.176 C 193.357 231.121,193.665 230.088,193.916 229.880 C 194.166 229.672,194.550 228.758,194.768 227.848 C 194.986 226.938,195.379 226.016,195.641 225.798 C 195.904 225.581,196.118 225.214,196.118 224.984 C 196.118 224.754,196.574 223.992,197.131 223.291 C 197.688 222.590,198.143 221.868,198.143 221.687 C 198.143 221.319,200.498 219.072,200.884 219.072 C 201.019 219.072,201.595 218.680,202.163 218.202 C 204.095 216.577,210.201 216.712,212.074 218.422 C 214.228 220.388,215.019 221.330,215.027 221.941 C 215.032 222.312,215.333 222.996,215.696 223.460 C 216.662 224.694,216.662 229.229,215.696 230.456 C 214.381 232.129,215.151 233.839,216.815 232.938 C 217.221 232.718,218.122 232.241,218.819 231.878 C 219.515 231.515,220.084 231.078,220.084 230.906 C 220.084 230.734,220.426 230.488,220.844 230.358 C 221.727 230.084,223.789 228.189,223.794 227.647 C 223.796 227.444,224.101 227.003,224.473 226.667 C 225.392 225.835,225.419 222.439,224.520 220.754 C 224.174 220.107,223.774 219.198,223.630 218.734 C 223.287 217.633,220.237 213.963,219.202 213.407 C 218.759 213.169,218.397 212.846,218.397 212.688 C 218.397 212.531,217.903 212.205,217.300 211.962 C 216.696 211.720,215.840 211.246,215.398 210.909 C 214.955 210.571,214.271 210.290,213.879 210.284 C 213.486 210.278,212.557 209.979,211.814 209.620 C 210.291 208.884,205.062 208.707,203.544 209.340 M249.401 209.409 L 250.194 209.849 248.957 210.436 C 247.569 211.094,245.738 212.861,245.738 213.542 C 245.738 213.787,245.397 214.638,244.979 215.433 L 244.219 216.878 244.129 243.713 C 244.080 258.473,244.155 273.283,244.298 276.624 L 244.557 282.700 248.101 282.583 C 253.356 282.408,256.516 281.457,256.023 280.199 C 255.907 279.904,255.670 278.219,255.495 276.456 C 255.321 274.692,255.022 272.489,254.830 271.561 C 253.727 266.220,253.227 256.875,253.855 253.311 C 255.063 246.444,261.442 240.185,263.604 243.744 C 263.896 244.226,264.556 245.213,265.071 245.938 C 265.586 246.664,266.322 247.751,266.708 248.354 C 267.093 248.958,267.518 249.451,267.653 249.451 C 267.915 249.451,269.249 251.988,269.428 252.827 C 269.514 253.231,269.005 253.371,266.908 253.520 C 261.684 253.890,260.769 256.259,261.777 266.811 C 262.097 270.166,262.491 273.257,262.652 273.681 C 263.600 276.174,264.008 286.152,263.203 287.173 C 262.812 287.670,231.041 287.790,230.264 287.298 C 229.918 287.078,230.123 286.693,231.132 285.663 C 233.726 283.017,234.339 281.303,234.668 275.781 C 234.828 273.089,235.123 268.456,235.324 265.485 C 235.780 258.763,235.775 235.098,235.317 228.523 C 235.130 225.831,234.847 221.730,234.689 219.409 C 234.434 215.674,234.299 215.035,233.506 213.840 C 231.993 211.560,231.192 210.633,230.733 210.633 C 229.877 210.633,229.438 209.710,230.108 209.320 C 231.057 208.768,248.389 208.848,249.401 209.409 M291.405 209.382 L 292.347 209.789 291.068 210.581 C 290.364 211.016,289.310 212.155,288.724 213.112 L 287.659 214.852 287.425 222.954 C 287.078 234.989,287.114 262.461,287.483 267.679 C 287.954 274.341,289.366 278.080,292.230 280.253 C 293.822 281.461,299.404 281.642,301.440 280.551 C 302.087 280.205,303.072 279.818,303.629 279.691 C 307.139 278.894,307.093 279.280,307.137 250.295 C 307.189 216.016,306.791 212.737,302.299 210.392 L 301.307 209.875 302.225 209.394 C 302.965 209.006,304.804 208.932,311.724 209.013 C 321.060 209.123,322.113 209.326,319.965 210.604 C 316.161 212.868,316.291 211.629,316.066 247.540 C 315.847 282.487,315.622 279.871,319.043 282.085 C 321.579 283.725,321.809 284.111,320.422 284.400 C 319.911 284.506,318.734 284.944,317.806 285.373 C 316.878 285.803,315.589 286.271,314.942 286.413 C 314.295 286.555,313.459 286.865,313.085 287.102 C 310.803 288.550,307.173 288.849,307.173 287.589 C 307.173 287.202,306.947 286.450,306.671 285.916 L 306.169 284.946 304.899 285.593 C 296.108 290.074,286.532 288.875,282.392 282.775 C 278.837 277.537,278.315 273.256,277.982 246.582 C 277.613 217.075,276.903 210.851,273.881 210.657 C 273.057 210.605,272.672 209.694,273.315 209.320 C 274.209 208.800,290.184 208.855,291.405 209.382 M350.062 210.040 C 354.083 211.632,357.014 214.421,359.020 218.565 C 360.387 221.391,360.536 230.780,359.241 232.532 C 358.823 233.097,358.481 233.684,358.481 233.837 C 358.481 234.456,355.799 237.464,354.490 238.313 C 353.481 238.967,353.947 240.475,355.352 241.099 C 357.263 241.949,363.207 248.535,363.207 249.802 C 363.207 250.121,363.434 250.570,363.711 250.800 C 363.988 251.030,364.375 251.846,364.572 252.613 C 364.768 253.381,365.243 255.050,365.626 256.323 C 366.502 259.231,366.427 268.441,365.513 270.211 C 365.225 270.768,364.902 271.796,364.794 272.495 C 364.686 273.194,364.285 274.164,363.902 274.650 C 363.520 275.136,363.207 275.790,363.207 276.103 C 363.207 277.585,356.754 284.113,354.659 284.751 C 354.255 284.874,353.689 285.180,353.401 285.432 C 352.920 285.853,350.451 286.523,346.667 287.259 C 344.863 287.610,330.330 287.633,329.114 287.287 L 328.270 287.047 329.025 286.637 C 331.096 285.510,332.358 282.600,332.795 277.944 C 333.020 275.548,333.374 272.523,333.582 271.224 C 334.368 266.313,334.046 221.687,333.204 218.904 C 332.811 217.605,332.486 216.162,332.482 215.697 C 332.472 214.626,330.598 211.602,329.325 210.603 C 327.368 209.069,328.501 208.880,338.734 209.030 C 347.597 209.159,347.909 209.187,350.062 210.040 M211.814 210.272 C 219.930 212.455,227.368 222.309,224.025 226.450 C 223.821 226.701,223.497 227.223,223.304 227.609 C 223.111 227.995,221.738 229.114,220.253 230.097 C 218.768 231.080,217.209 232.123,216.790 232.416 C 215.773 233.125,215.466 232.418,216.188 231.033 C 218.644 226.324,215.007 218.218,209.819 216.837 C 204.850 215.514,200.074 217.599,197.002 222.435 C 196.466 223.277,195.751 224.369,195.413 224.861 C 195.075 225.353,194.694 226.188,194.566 226.717 C 194.439 227.246,194.070 228.211,193.746 228.861 C 193.423 229.511,192.972 230.954,192.744 232.068 C 192.516 233.181,192.183 234.370,192.004 234.709 C 190.507 237.546,190.402 263.232,191.878 265.621 C 191.993 265.806,192.381 267.110,192.741 268.518 C 193.102 269.927,193.629 271.411,193.913 271.817 C 194.198 272.223,194.430 272.881,194.430 273.279 C 194.430 273.676,194.713 274.364,195.058 274.807 C 195.403 275.250,195.923 276.077,196.215 276.645 C 199.253 282.571,206.505 283.279,212.529 278.236 C 214.100 276.921,216.867 271.515,218.851 265.886 C 219.128 265.101,219.688 265.453,220.293 266.792 C 220.555 267.373,220.908 268.076,221.076 268.354 C 221.825 269.591,224.471 275.455,224.458 275.850 C 224.430 276.683,222.111 280.162,220.496 281.794 C 215.453 286.888,207.496 289.367,200.737 287.949 C 197.028 287.172,194.842 285.886,191.236 282.363 C 189.459 280.626,187.797 278.201,186.330 275.204 C 185.948 274.423,185.505 273.703,185.346 273.605 C 185.187 273.506,184.959 272.776,184.840 271.982 C 184.721 271.188,184.325 270.085,183.960 269.531 C 183.594 268.977,183.295 268.047,183.293 267.464 C 183.292 266.881,182.886 265.059,182.390 263.413 C 181.201 259.467,180.969 240.615,182.060 236.624 C 182.390 235.418,182.871 233.519,183.129 232.405 C 183.683 230.016,185.070 226.028,185.560 225.412 C 185.750 225.174,186.228 224.295,186.621 223.460 C 187.015 222.624,187.604 221.547,187.930 221.067 C 188.256 220.586,188.925 219.589,189.416 218.852 C 191.471 215.764,198.569 210.695,200.963 210.606 C 201.361 210.591,202.371 210.383,203.207 210.144 C 205.478 209.493,209.121 209.547,211.814 210.272 M343.245 215.921 C 342.394 216.148,342.278 217.471,342.278 226.982 C 342.278 237.499,342.210 237.265,345.084 236.515 C 353.026 234.441,353.869 220.172,346.262 216.574 C 344.390 215.688,344.243 215.656,343.245 215.921 M346.254 217.197 C 347.224 217.559,348.017 217.978,348.017 218.128 C 348.017 218.278,348.389 218.725,348.844 219.120 C 349.299 219.516,349.771 220.312,349.892 220.890 C 350.014 221.468,350.404 222.820,350.760 223.893 C 351.370 225.735,351.377 225.956,350.869 227.775 C 350.572 228.836,350.180 230.338,349.996 231.113 C 349.320 233.956,344.733 237.218,342.955 236.119 C 342.561 235.875,342.484 217.766,342.874 217.181 C 343.128 216.802,343.993 216.383,344.313 216.484 C 344.411 216.515,345.285 216.836,346.254 217.197 M342.382 244.942 C 342.023 245.879,342.613 274.058,343.053 276.962 C 343.660 280.966,343.873 281.091,347.902 279.789 C 358.667 276.311,360.838 256.620,351.426 247.834 C 348.160 244.786,343.067 243.157,342.382 244.942 M347.160 245.495 C 347.376 245.790,347.975 246.137,348.492 246.267 C 350.159 246.685,353.108 249.941,354.436 252.827 C 354.649 253.291,355.115 254.232,355.470 254.918 C 357.023 257.914,357.128 267.998,355.636 270.812 C 355.220 271.595,354.782 272.616,354.663 273.080 C 353.841 276.262,346.338 281.041,344.525 279.537 C 343.480 278.670,341.888 247.448,342.771 245.147 C 343.038 244.450,346.603 244.733,347.160 245.495 M33.767 309.176 C 33.575 309.535,33.418 310.381,33.418 311.055 C 33.418 311.729,33.575 312.574,33.767 312.934 C 34.201 313.744,365.368 313.991,366.177 313.181 C 366.703 312.656,366.703 309.454,366.177 308.928 C 365.368 308.119,34.201 308.366,33.767 309.176 M365.738 311.055 L 365.738 313.080 200.000 313.080 L 34.262 313.080 34.157 311.435 C 34.100 310.531,34.133 309.581,34.231 309.325 C 34.382 308.931,59.586 308.873,200.074 308.945 L 365.738 309.030 365.738 311.055 " stroke="none" fill="#a4a4a4" fill-rule="evenodd"></path></g></svg>